<mxfile host="app.diagrams.net" modified="2024-02-14T15:18:04.642Z" agent="Mozilla/5.0 (Windows NT 10.0; Win64; x64) AppleWebKit/537.36 (KHTML, like Gecko) Chrome/121.0.0.0 Safari/537.36" etag="8PEIa0bTevwXrtHEXegk" version="23.1.4" type="github">
  <diagram name="Seite-1" id="7JIB3JbnTGNXzTfNk815">
    <mxGraphModel dx="5399" dy="1887" grid="1" gridSize="10" guides="1" tooltips="1" connect="1" arrows="1" fold="1" page="1" pageScale="1" pageWidth="827" pageHeight="1169" math="0" shadow="0">
      <root>
        <mxCell id="0" />
        <mxCell id="1" parent="0" />
        <mxCell id="5MVP5skuAe8IDS_eW-yI-58" value="" style="rounded=0;whiteSpace=wrap;html=1;strokeColor=none;" vertex="1" parent="1">
          <mxGeometry x="-1550" y="440" width="2410" height="480" as="geometry" />
        </mxCell>
        <mxCell id="5MVP5skuAe8IDS_eW-yI-54" value="" style="shape=image;verticalLabelPosition=bottom;labelBackgroundColor=default;verticalAlign=top;aspect=fixed;imageAspect=0;image=data:image/png,iVBORw0KGgoAAAANSUhEUgAAAzIAAAGGCAIAAAAvkyMwAAAAAXNSR0IArs4c6QAAAARnQU1BAACxjwv8YQUAAAAJcEhZcwAAFiUAABYlAUlSJPAAAF/kSURBVHhe7Z1tduwqrobPuDKgjCejyUjuvxpMXyHJNgghXOWPYPb7rNV9MAghJBm0k0ry3/8BAAAAAIABSGXZ/wAAAAAAwF+DsgwAAAAAYAhQlgEAAAAADAHKMgAAAACAIUBZBgAAAAAwBCjLAAAAAACGAGUZAAAAAMAQoCwDAAAAABgClGUAAAAAAEOAsgwAAAAAYAhQlgEAAAAADAHKMgAAAACAIUBZBgAAAAAwBCjLAAAAAACGAGUZAAAAAMAQoCwDAAAAABgClGUAAAAAAEOAsgwAAAAAYAhQlgEAAAAADAHKMgAAAACAIUBZBgAAAAAwBCjLAAAAAACGAGUZAAAAAMAQoCwDAAAAABgClGUAAAAAAEOAsgwAAAAAYAhQlgEAAAAADAHKMgAAAACAIUBZFvEfAAAAAK5Eb1zAoCyL0JQBAAAAwDXojQsYlGURyJg7gau7wEW3AVdPA0I5MhQdBMiAsiwCGXMncHUXuOg24OppQChHhqKDABlQlkUgY+4Eru4CF90GXD0NCOXIUHQQIAPKsghkzJ3A1V3gotuAq6cBoRwZig4CZEBZFoGMuRO4ugtcdBtw9TQglCND0UGADCjLIpAxdwJXd4GLbgOungaEcmQoOgiQAWVZBDLmTuDqLnDRbcDV04BQjgxFBwEyoCyLQMbcCVzdBS66Dbh6GhDKM3j9fJEj//vv6+elPefAShGgApRlEX+ZMb/fsnrO19f3z+/r3LdiHGiD2mrwe9HB8DnbUfWrPddCS2lr4bXkyfc9FlzI4swW94adFtQWM5Gfn8JpLxfp0BaDUH6EKcvOjA6hD4BBWRbxhxkT3VFUnL13QT3jHCIDtdVg2caflGWuD5fOu0yilbS1sObJ8HdMNwmjlE/8bVk2j58HZOfL9eHWaIa2GITyIxa3aTTOjA6hD4BBWRbxhxnjnB0v+mfeenG9lftDvd5NyEBtNVi2ce/9rLg+NEfV5dBS2lqY9I75+23R2tpiJvXzIOx8uT7cGs3QFoNQfoQJx5nRIfQBMCjLIv4wY1pnx9r/TiXwjJOaDNRWg2UbdxVBBUP4kNbX1sKkd8zfb4vW1hYzqZ8HYafNH26NZmiLQSg/YnFb8/T9PDqEPgAGZVnEH2ZM++xYsj97PV6/P99fKk98fX3/2n/C5OQvVvoK3Dozn3g/ZIC2Gjg7L6jd8GO3U4gU2/3Ih+5R1TFD51BcWZBlSGrXN6ZJUFsLdZ6otaw/26tsJ+v6+srNalqVm+7trRw3EjreS8IaN/3DTta3cxfJymwbzi4qV9drP97PhY1pvkxfJyzaMm8XzlZiU5v7XWTaNheLNcTqsBDWSmryf5V6jipnIzOnIpS5qWZC8XgwOgQ3gYKyLOIPM8bNaGYd0bz2XgkiGF1eCH8qvYsyeje0trYaLOau9ufQwSSjhkx49VyGDH/qQ3vE7DFjnVMJbjItSEhbC3WerF6q9VddlVW1iKPZkJnd8HDbgS3qbSWc3qVL1O3ZRWMfNu2pS1tMvfSz/exoUJvWCYu2zDHLrErGsC26zqiXE5m2zcViLbF1H5uVlZHUloZQT1mUI5Q167iZUDy2rF1Ni6NDSBsIKMsi/jBjnIReWN4BTez0D6X0z5rl7THDCeetJDZB+TeRN/NOaGVtNQjsW4bWzWy7WcXXjuXfgCRC//5N7U99aM+YPWaskV0NWXuy5XxIRlsLdZ6sC2b/3NeOrataMbNK+14/1vKul9aFdGOZhxsObFFvi6m6l47V5j27WJ7V+9U2GOrQFlMbtG72iX62GmqzXEWLWCbTMTVTbJdaZRo2V4u5Yqu6pbOeRg/aYqoZmzcQyrapZkI137V2NSaMDqEPgEFZFvGHGVPl84Z9Xyz16+G9MF5n/c7cCS2srQbtjfsj5Q5dJ7Sohd3pxmF7zHCdvNc2EtHWQp0nji7HLivlWVXrNhgl8S7iUUNzabMVfVys3rELxwxv1v67PFNkjEtYqR0W1hglzsoZ8ajgGFpb5ihyPVVgJ3kzasWuzfVUV2ztVTl9zBakJ20xtbsdvUZpwkp5W6t1G4wSZ+WMeFRwDK0tcxR51peYSWZCPd+31tinj9mq/Pw3l+ywoCyL+MOMab/f9Qj/iGb9pfRtpvfCrGoc2q/qldDC2mpg3vCNhrOKk6N4qPnIh0bpHjN8Q1zlDiSirYV6TUeX4zgr5VlVzwu95KrY2LtHpt7WQmGTPmz2dXexKnYoZtGztpjaIGc/xUqClepbmLjYz/VmiEqto8hZuvPieMbWil2b66mNrS3dLKgP+Xr0qC2m3r2jt9ApWClva/W8aUJpJtTzG9YWHtGHbNG/vGSHBWVZxB9mjPu6MUWaZ4IV20zvhWnPK9+a+6CFtdXA7Hyj4azi5CgeDJ/60CjdY4ZviKvcgUS0tVCv6ehyHGelPKvMvHWpClHiqtjYu0em3tZKZtQitQr1d9HehJlFz9piaoOc/ZT+YqxU38LARFHiqthw7LLUmyEqtY4iK9Mz1Te2VuzaXE9tbW3pJ8llUi5Cj9piVqNXGUdvplJ7Kilva2beulSFKHFVbDh2WerNEJVaR5GV6ZlqJ1RrNK3NXLJMykW4428u2WFBWRbxhxmzviUmydd+83b8V/9s0zbTfWFab9GfQbZoq0H2fmvPgjtSurDlUOJzHy4zdd0dZlRzGFe5A4loa6HelqPLsctKeVaVurenVaRUUptSsHePTKRrHVv+Zb/JLEPtXew2g0S0xdQGOYqWruH97BhaW+YIGZmuqY5WorbQtbme6oolVkPqlCDoWVvMZvUi5OhdujK7rZS3tVL39tTYQm1KQXO/GY6htWWOkJHpmtqasKlsWrvqbkWH0AfAoCyL+MOM2V6TNYX5a8zSuXVvb4e+PMtfKMpneq9u9rJsP9GtX8bOxe6DTNFWA3cbwjK0jdFOtEv9sO6XOkSGN0vyx324dO4wo5qTWIS25XxIRFsL667WqY4ux3YrtXlnkdp6RGazW6bUXspnyEKLhxOOEW3qbWVktiYykWyksYuto5P2JKEtpjboyX6uNNRmZX2VobYneHE2kc2a2nOuzfXU9tYy2xKb5gR1aItZZVep2iBvKSuVralSW4/IbDuQKY8O5SZhJugaB6JD6ANgUJZF/GHGmEwu0J8NEtqCWfYvb4ywvDetqeVrcxu0srYalLtYYXNbeyFfyWSCDjzt3WBffOzDZeJ6Eu0wo5pDLLp7nicRbS2sC65THV1LV7aklWq7oLu3Yu1aZJ3vObBFva2cwpJcYscu2kLlUtShLaY26Nl+LoVytgmOIfr1jkWmb+oikZsReE4QYWdqe2uFJZniBPVoi1lFM3eajq3LWdxurWad1BbJ1q5F1vnt/WaUQjnbBMeQd0O5COgE85hoW1soz7yckE59AAzKsoi/zBjnZaMXqf7FmMRr+2WGdP+vv/OmSH/6x88ik1cq9I8i+seZDqQV3AXugdbXVoPGybFsZ89e+N+iKpAkVoHPfOicTV0zvDlLsIvlHEhEWwuLodtUR9fS5Ryhi9Rm1W+5zdz0PV5qephoJKFDZo72lCzmG5ft20Uyspsq1K0tZj4/sw9WKTZH2lle5oaIj8SSTKZj6u5sr232pgZbW7QavQR1aYtBKD8KpQnHmdEh9AEwKMsikDF3Ald3uc5F7ik7Lou55pA/cRekRVunMq6fH5YBFY2UIKhPW6eCUL5BGB1CHwCDsiwCGXMncHWX61z0rEu5dcifuAvSoq1TGdfPz8qAilZKENSprVNBKPcTR4fQB8CgLItAxtwJXN3lOhc96lJevyNiD/kTd0FatHUquMuvoZkSBPVq61QQyt10okPoA2BQlkUgY+4Eru5ynYuedCkvh3z9wbMTd0FatHUquMsvoZ0SBPVr61QQyr30okPoA2BQlkUgY+4Eru4CF90GXD0NCOXIUHQQIAPKsghkzJ3A1V3gotuAq6cBoRwZig4CZEBZFiEZAwAAAICL0BsXMCjLIjRlAAAAAHANeuMCBmVZBDLmTuDqLnDRbcDV04BQjgxFBwEyoCyLQMbcCVzdBS66Dbh6GhDKkaHoIEAGlGURyJg7gau7wEW3AVdPA0I5MhQdBMiAsiwCGXMncHUXuOg24OppQChHhqKDABlQlkUgY+4Eru4CF90GXD0NCOXIUHQQIAPKsghkzJ3A1V3gotuAq6cBoRwZig4CZEBZFnFzxsjfzHD+bNgZXKr8FO509UOBi24Drp4GhHJkKDoIkAFlWcS9GfOPV2UfnZ7819bO/9NvF6ndSzNYn7joY+5zwuv3O2048b2u53beBy2rLfBwEMqR4TccASpAWRaxI2PS5bHcHv99fX3/uhfI64evmLAqcu7iPcoLGRbSgYJK+avU/f1T6+6sflyDgWS0tSJmV2y1Asqy6zjNCUsUG+mvw18/v78/P0sF5nbeCS2uracSnwzdd/O9l3dkyH5tgfGQBNMHwKAsi+hlzHLf0KFF6CFmL7JFiGjcSwyL5XP3KOebM0nQ7UX8JDnvr/Qb5UY1t21FGK9+XEMNDWtrRXSIhoxtiyjLruMsJ0iSJtz8dzfb9MCnvL0ZEtfWIxGn05vjngzdd7Mr8CTIdG2B8eDUQoAKUJZFxBmjR1d2d9A/MMseFaEDsXfNsGR27u1WvuesdJSTSdUhvEl0Vz+uoYYGtbUiWtpTrqqfLlK7l+a2HRddx0lOEDVSu3uR5M3aZdzOI7y9mVtdfTKSP83dynDwbnYFngUZri0wHimvEKASlGURYca4Z5905sebCJT9NfbW2Km8ffTm9K8k0Vyqjle3HNfgnZ6dGaeVDpaL1O6luW3HRddxjhNYC22luScesMu4nUd4ezO3uvpcOs6TSJjxPDxdgYfx4FD+A1B0ECADyrKIMGP8g75x/HcOtWpWXzlrrBdyaJiUYw7i/uoVxzV4p2f3LjAa+ZHE6R/3aWLiy/tg0utXPuwnfFUfnFnUJj0q97me0nxvS7mapKO5berl/2Z2ecvuMyy5LVdkhYxvE911KzYPOJviwQIadjsX+hvP9q3jtcJMY1MhPWrrabCjm2+ZG1ci6+0KPIznhvJfgKKDABlQlkVEGdO4Ot/rVqoTb4cWnvP9k67f1Mm4n7vfc5yyzLreJ3s4rsE7PeMJhNmcWMEOoSu28aEYUaoSm0y+iuhhjuspza+3tCzGalRLwtk29S4aaFX+2JCWIXX2dA37IlYpkantyvR213XIHaDz8wmvRZEqpYq00cnSPQMKT27DrJCnqsLlJYkUUotlnof4vHkyyKar5Nq6uwJPg8zWFhgPig4CZEBZFhFlzHuHV3im2ftvjxZpJujEzW8VO6tWXqG61on91S3HNRA0pK0VmaDlxUJeeZrd6b2cbVc12I7SCJmWCZ2qp9yvzNv6KsWLZs9P1GvnE2WXTi8kdmywIbM+d9f1MPsvNSqsZUdn1wB5KialgkxaztKxQvqv9D0N2UPCPxmcbSe27q7A0yCztQXGg6KDABlQlkVEGfPe4RWdaebuSvS1aLO8zZxpjnKDTMpl+quXHNfA0JC2VlRzST7f3Lb9y9c3QXov0lMK7dHjKyeoNw2l77Xl/KZ7V1d9w7Byg7EMD0brOtSmNJe1SurOrgH1ajn1yh2FJK6CD0P9UDo0c07DT1t3V+BpkNnaAuNB0UGADCjLIqKMee/wCs405+reocWXYF15r6e8QGaUt+J7eziuQaEhba3EEwhefFvbPCaMCkciIZuIpD7XU5q/R09z26mX/ueiSt4wzEqZzuJR5nvUaym6C/2+ocBftylnsJhVUnd2DXC3tFKPdhTSf1XwYfjJI7tNvY3k2rq7Ak+DzNYWGA+KDgJkQFkWEWaMfw00LofmmdYY6Ct3Jbhz09Y7SWX8k9UXjmvYoDFtrfQ2YDU6CxgVDRO4O5T6XE9p/h49zW2nXpYvv8bDqMgbhlkp01k86kN73QrZhEuxMMtZU+rOrgHullbq0Y5CGuT/Pg/XEdwp8fcdlfV2BR4G2a0tMB4UHQTIgLIsIswY9+7MTr+C1kX7Vn+h3JOQvvXobCkXZNQd7q/OHNdQQGPaWol3QJi7wjwmjApfo/QOo8dXTlBva2jhY8OqmYVM06QWPMGskGCtuSJXsO7sGlApLqg33FFIY9p6Gt7GpE/27248915X4GGQ3doC45HSCgEqQVkWEWdMftQJ0uOdXe5J1+wm+srlnMwlTE9beaZsm53TX/0EDRYa1NaKzGlPsbeteUxYFbXb0i9JMH2n6sntVydEeuTzTYXMCvWKhtI2mrR8kectwwopX2Z97q5bYt21IetsIyxZ6a07P9v48gOIjj2xQhri5wdSO6LsqTcuPat7ugLPggzXFhiPlFcIUAnKsohexshpRwcY/4QgH1zl0UX3ocKDy48UBnfFRl+5HJUqsfwahPUsDZSr6vIHHBPmrxqtMtXqxzXU0LC2VvR+sMss/tNFtj2bx0TthtWwwrJi1ll61hixiP4+CqNnFREZaRqZBepd111/zk5+0C5bd+8GBZaqsoewTuiumyGyfrTNGO/fanE7ewYsnixSbllnnZw2q52RQmqwzBMpHeHEVjdeOKqIVlfgSZDp2gLjIbmlD4BBWRbRz5ji13bSce9fJBVywLl3T0ZHOZG+srJJZOVKqHw9tSty+Wj14xocSEhbK411tkXYwc3HhKgwN0r6paOFZeZrfmfpIcgJiwgJ0DjrLvWsXyAjGdbhyDDUy/8t4m4Cz+zdYPbbV9m4HM8JvXUVnuptgClH2bHlMo1OomdA+UKUW8qcvCluKqQnaTyT0hFOgvTezTdf3pGhDWgLjIdkmD4ABmVZxLUZ07p6TuFS5deAl7PLaS5ySi5QgGycBoRyZCg6CJABZVnEpRlz6c34xGv3OldPw2kuQlnWA9k4DQjlyFB0ECADyrKIKzMGVZnlMlfPw2kuQlnWA9k4DQjlyFB0ECADyrIIZMydwNVdTnMRyrIeyMZpQChHhqKDABlQlkUgY+4Eru4CF90GXD0NCOXIUHQQIAPKsghkzJ3A1V3gotuAq6cBoRwZig4CZEBZFiEZAwAAAICL0BsXMCjLIpAxdwJXd4GLbgOungaEcmQoOgiQAWVZBDLmTuDqLnDRbcDV04BQjgxFBwEyoCyLQMbcCVzdBS66Dbh6GhDKkaHoIEAGlGURyJg7gau7wEW3AVdPA0I5MhQdBMiAsiwCGXMncHUXuOg24OppQChHhqKDABlQlkUgY+4Eru4CF90GXD0NCOXIUHQQIAPKsoibM4b/vPh/37/6eC6XKj+FO139UOCi24CrpwGhHBmKDgJkQFkWcW/G/ONV2Uen50V/ROiP/zZRM1ifuOgpDPb3oGZ29T8GQjkyFB0EyICyLGJHxrx+v7/SHcp8fX3/utfK6+e7WxU5d/Ee5YUMC+lAQaX8Ver+/ql1d1Y/rsFAMtpaEbMrtssbZdlZ1K7+oog5Qb0KlGV3s+/oeD60OW2B8ZDs0wfAoCyL6GXMcpXRiUboEWdvluy+i849Fsvn7lHOV1mS+PlN/CS5H2cRo9yo5ratCOPVj2uooWFtrYgO0ZCxbRFl2VlUrpaAERf4wfMvyrJb2Xt0TMDsoXw2KQ0RoBKUZRFxxmjdkd2e9M/PskdF6LxrXbQLLJldSruV77nIHOVk0jZPF9skuqsf11BDg9paES3tKSjLTsNb8yVpG0bgIzz//rHPLWSMtiZEgj2Os69l6lA+HooOAmRAWRYRZox7tJWXW3oSAe/Sy7F30k7l+07W/oUnmkvV8eqW4xq807Mz47K7/I9LhOa2HRedRWtNdkUYgw/w/PvHPreQMdqaD471OK6+mplD+XwoOgiQAWVZRJgx/jXSuFw69UU1q698/9HaMClHzFtl+qtXHNfgnZ4dt1Ua+ZHE06dmqJX4+nbWe/3Kh/2Er+pTb4vapEflPtdTmu9tKVeTdDS3Tb3aOp3mmjJQWbw6xtl3+bHD0nXskhJRvcvnhcMv/a4b6dfWdHBEm6/hfEwcygngVxkBKkBZFhFlTOMae69bWW4kfdylRW78n3RNpU4mfVCkOmwr5Q5yVy7rfbKH4xq80zOeQJjNiRXsEP6UlLqm3L0oVYlNJl9F9DDH9ZTm11taFmM1qiXhbJt6tXU6bVfLSLZ37UjZxp9KYpO38d5w6mQJ/ViTpuwOn2t4V8VUl22DJ0MLaWs6JCt3HB2TQNvTFhgPyT99AAzKsogoYxrX2HvdAh+TxQ3T1yLNBB2o+f1nZ9XKK1TXOrG/uuW4BoKGtLUiE7TuWcivD7M7ubfz7aoG21EaIdMyoVP1lPuVeVtfpXjR7PmJerV1OtauDN7FaqEjaLpev69tN0Q5P1H3LM7Le61r+NnMugxaWVuzIW5NdI6OWaCdaQuMB2ceAlSAsiwiyhjndkq8183suLuVrFub5R3lTHOUG2RSLtNfveS4BoaGtLWimkvy+eZ+d657s6ZvgvRepKcU2qPHV05Qr7ZOp7mm2RQ/8XdaM/h7xqW/MmrVjn93+7z4UZProJW0NRvq1dL7dYzmYd5QzgBFBwEyoCyLiDKmcY69151wru4dWnwJ1pX3esoLZEZ4Gy40uo9rUGhIWyvxBIIX39Y2jwmjwpFIyCYiqc/1lObv0dPcNvVq63Tari5HZIcexS6oVPv50S9vytdictXerp2+yib9/X8kd/k33WgRbc2GH2mJqxf/xzNvKGcgpR0CVIKyLCLMGPdCbfS2L73GQF+5K8Gdm7bmqoqMf7L6wnENGzSmrZXeBqxGZwGjomECd4dSn+spzd+jp7lt6tXW6TTXlIHVRDW4/GoZI+MEf+2sIlft7drp823KPvZfB+A0SLu2psPNOe704v98Jg7lBKS0Q4BKUJZFhBnj3hmtw6116b3VXyj3JKRvPXBbygUZdYf7qzPHNRTQmLZW4h0QrHK7YcxjwqjwNUrvMHp85QT1aut0WmvaLTVtW9AJ2UcA6ymOX3b4quDF8pEhxyDd2poOz60atTIkkzBxKCeAooMAGVCWRcQZU59k0uNdFY0LptFN9JXLtZRLmJ628kyZfwz3Vz9Bg4UGtbUic9pT7F2+42qv3bbc8FnfqXpy+9UJkR75oFYhs0K92jod19W1uUtf6RzqXb9cVvtONlTrKBer5/k2rfCE1uBhSLe25qPKOadnImYO5fNJiYcAlaAsi+hljBxmdJxtn6Ax188vjxA8uPxI4fKxmPDa6SvXO1Mkqt8nEChX1eUPOCbMXzVaZarVj2uooWFtrcgezE9ibv7TRbY9m8dE7YbVsMKyYtZZetYYsQiH6Iv/P9OzioiMNI3MAvVq63QqV4tVyfRiR4RufP05Pvme4rpxGU4f/lrHEsV2VhXJKzLS9Xl6ImFec/k+puOjkyDl2pqQJeeyvLS+nwjam7bAeHDuIUAFKMsi+hljfr2lvcGWm9sitwkfjsFh2FFOpK+sbBJZuRIqXw/lilw+Wv24BgcS0tZKY51tEXOXd692JX10vLDMfM3vLD0EOWERIQEaZ92lnvULZCTDOhwZhnq1dTq1q2U/1YaYIvFM5olbdIjGfkmYGmY72ZbFz32fx4ueDK2grTkJjo7ZoA1qC4yHZKA+AAZlWcS1GcOXTnkPncelyq8BL2cXuOg24OppQChHhqKDABlQlkVcmjHOVwfO41LlF3Gdq6cBLroNuHoaEMqRoeggQAaUZRFXZgyqMstlrp4HuOg24OppQChHhqKDABlQlkUgY+4Eru4CF90GXD0NCOXIUHQQIAPKsghkzJ3A1V3gotuAq6cBoRwZig4CZEBZFoGMuRO4ugtcdBtw9TQglCND0UGADCjLIiRjAAAAAHAReuMCBmVZBDLmTuDqLnDRbcDV04BQjgxFBwEyoCyLQMbcCVzdBS66Dbh6GhDKkaHoIEAGlGURyJg7gau7wEW3AVdPA0I5MhQdBMiAsiwCGXMncHUXuOg24OppQChHhqKDABlQlkUgY+4Eru4CF90GXD0NCOXIUHQQIAPKsghkzJ3A1V3gotuAq6cBoRwZig4CZEBZFnFzxvCfF//v+1cfz+VS5adwp6sfClx0G3D1NCCUI0PRQYAMKMsi7s2Yf7wq++j0vOiPf/7x3xRtBusTF03LtSkNV08DQjkyFB0EyICyLGJHxrx+v7/S7cB8fX3/ulf56+e7e4U4t8we5YUMC+lAQaX8Ver+/ql1d1Y/rsFAMtpaEbMrtoIJZdkpfFbhsJf+zk2fGb2Xq1w9Bjte3nmgHWoLjIekoD4ABmVZRC9jlqqBKg5Cjzl7TWWlRXSFsFg+d49yvRjTsZr4SXI/ziJGuVHNbWNdZ/XjGmpoWFsrokM0ZGxbRFl2Cs0FQyT7OsX2dXxm9F6ucvUISOCil3cqaHPaAuMh2acPgEFZFhFnjNYd2XFG/wQte1SESqXeFcKSWSGwW/me4sFRTiZt83SxTaK7+nENNTSorRXR0p6Csuwcun4ekWuNvsrVA0CO817eh4V/PxOHcgJS6iFAJSjLIsKMkcPM3N3lVZGeRKDsr7F1wE7l+0qHfpEhmkvV8eqW4xq807MzA2XZSXT9PCLXGn2Vq0dEPPl3+X4x/1IonwdFBwEyoCyLCDPGv7obF3rnCqlm9ZWzxnohh4ZJOeZc7q9ecVyDd3p23FZp5EcST5+coVbi69tZ7/UrH/YTvqpPvS1qkx6V+1xPab63pVxN0tHcNvVq61zqBfd40szas9lFZtGaf8s9c7bny/1eOgVSra35EU82X8yn8y+F8nlQdBAgA8qyiChjGpfCe93KUgXo4y4tcsH9pKsqdTLuR3cr5Q4ss673yR6Oa/BOz3gCYTYnVrBD+IMz7ifaRKlKbDL5KqKHOa6nNL/e0rKYfNJHtCScbVOvts6lZRRb0/SAmbVns5tjVetSlokkdfKnJLX+yld7w0unQKq1NT3i2qsc+ff8Q6F8ICn3EKASlGURUcbUNxnzXrfAx2J04S1k3dJM0E2WX2V2Vq28QnWtE/urW45rIGhIWysyQeuehbzyNLvTuzvbrmqwHaURMi0TOlVPuV+Zt/VVihfNnp+oV1vnYo3a5QE7a8dmHbVMvb7pai1uFzwPUq2tKXmlI4MOjaUAvsqNIzB5KB9OSj8EqARlWUSUMc5Nknivm9lznQlZtzbL682Z5ig3yKRcpr96yXENDA1pa0U1l+TzeXvbbW0eE2ZN3wTpvUhPKbRHj6+coF5tnUu9YN8DVUd/s65agsX4+5IZ/H1OFa3tI9zO0yDV2poR8d2K+2X2aaANaguMh2SgPgAGZVlElDGNS+G97oRzm+3Q4kuwrrzXU14gMzr3r9DoPq5BoSFtrcQTCF58W9s8JowKRyIhm4ikPtdTmr9HT3Pb1Kutc6kX7HvA30ppdDXF3a70uqjoe146BVKtrcnRAtgJyyz8M6F8JCn1EKASlGURYcYEN0x9wDWvkMZAX7krwZ2btt7FJeOfrL5wXMMGjWlrpbcBq9FZwKhomMDdodTnekrz9+hpbpt6tXUu9YJ9D/hbKY2uprjbXXrLr5YxpcBOL50CqdbWvwA7+DJf/jH/ViifRko8BKgEZVlEmDHurdA63lpXyFv9hXJPQvrW66ulXJBRd7i/OnNcQwGNaWsl3gHBKrf72jwmjApfo/QOo8dXTlCvts6lXrBvedWxZ4ojQzT3u+AKdGcdglRr61+A41IHZg7+rVA+jZR4CFAJyrKIOGPkWsiPMunxborGFdK+WfrK65PU9LSVZ8r8c7i/+gkaLDSorRWZ055ir3nn1rcqnAvoVfWdqie3X50Q6Vm+p+Rtm3q1dS61n3d4wHbs2KynNiGStt9+uWyvl06BVGtrNsjZxW+TZWde6ss/Zt5QzgBnHgJUgLIsopcxeprJD+3rNVGcbXTeKTy4/EjhcihWF11OX7neeiJR/QaDQLmqLn/AMWH+qtEqU61+XEMNDWtrRa9ru8x2qfAi257NY6J2w2pYYVkx6yw9a4xYRH/dhNGzioiMNI3MAvVq61wam+t4wHbs2KyjVlBnrj9WLD8huEm+46VTINXamo3Flcvbq0+XefLPob1pC4yHJJ8+AAZlWUQ/Y4rfJ0pXhrlwlpvbIicgn4/eHaV0lBPpawabRPHjVIHy9VyuyOWj1Y9rcCAhba001tkWMdf8nmIikf50fGGZ+ZrfWXoIcsIiQgI0zrpLPeuXfkiGdTgyDPVq61zqze3xQD2ru1lH7UqRzCabE7u9dAqkWlsTwm/m6ms/ceeBtqgtMB6Sg/oAGJRlEddmDN9qjSvqMJcqvwa8nF3GclFdlk0EsnEaEMqRoeggQAaUZRGXZkz0hYPDXKr8Iq5z9TSM5aInJtlukI3TgFCODEUHATKgLIu4MmNQlVkuc/U8jOKi35/1M0mTfrEM2TgPCOXI8CmCABWgLItAxtwJXN1lEBe9uOynwr/3ccEHg2ycBoRyZPgkQYAKUJZFIGPuBK7uAhfdBlw9DQjlyFB0ECADyrIIZMydwNVd4KLbgKunAaEcGYoOAmRAWRaBjLkTuLoLXHQbcPU0IJQjQ9FBgAwoyyIkYwAAAABwEXrjAgZlWQQy5k7g6i5w0W3A1dOAUI4MRQcBMqAsi0DG3Alc3QUuug24ehoQypGh6CBABpRlEciYO4Gru8BFtwFXTwNCOTIUHQTIgLIsAhlzJ3B1F7joNuDqaUAoR4aigwAZUJZFIGPuBK7uAhfdBlw9DQjlyFB0ECADyrIIZMydwNVd4KLbgKunAaEcGYoOAmRAWRZxc8a8ftKfGbzojwxeqvwU7nT1Q4GLbgOungaEcmQoOgiQAWVZxL0Z849XZR+dnhf9TfY//lPvzWB94iLwEXD1NAwXyrOOlz8+ps6BtkDoA2BQlkXsyJjX7/dXukOZr6/vX/cdef18d6si5y7eo7yQYSEdKKiUv0rd3z+17s7qxzUYSEZbK2J2xXYSoSw7SO3hLwqUF0sWfPodsB/arLbAw/mLUJanYzr86J06+9RCWTYpKMsiehmz3Gn00hH6FtrXJLv4orKMxfK5e5TzeynvfOInyf04ixjlRjW3bUUYr35cQw0Na2tFdIiGjG2LKMsOUnlY4kSY7avgn/nkbmiz2gIP5/ZQLkff+l7p6be80SjLMtgzeNcKUJZFxBmjL192e9K/kMoeFaFSiRvORbvAktkbtlv5nrfSUU4mbfN0sU2iu/pxDTU0qK0V0dKegrLsKN5SL8nW0PHTc76rwR9xcyjlnKOXpzw+6K1aes46Xv74mDoHdhbetQKUZRFhxsiFZl6K8pZLTyLQvGgV+4LtVL7vney/vaK5VB2vbjmuwTs9OzMuO5j++Lxrbttx0UFaS7EHQtdPzvmuBn/EraGUFyc+O846Xv74mDqH5C68ayUoyyLCjPHficab0qkvqll95ayxXsihYVKOmLfK9FevOK7BOz07bqs08iOJpw92UCvx9e2sR/9y3b5bl77VYP5lu6hNelTucz2l+d6WcjVJR3Pb1Kuts2guJQPZiA1esffqe+eZ5xzH2E/eVL49ovwcSLO2wMO5M5T8lnjvU86px0t5noavxnIckYyML+9V9328EFlSHwCDsiwiypjGffZet1K9Xju0yCv2k17c1MnQ61TfUM67W8Ey63qf7OG4Bu/0jCcQZnNiBTuEjqTGJ9pEqUpsMvkqooc5rqc0v97SshirUS0JZ9vUq62zaHtYRoxv10f1tHyoMeVg7huduo2y7CrQGT6m/CxIqbbAw7kxlPal8VneeOL48ZLN6r0a27q6rJRlN71RDdJieNdKUJZFRBkjuVzdZ+91C/bt2qNFmgl6m/LXyc6qlVeornVif3XLcQ0EDWlrRSbowbSQV55md3ruZNtVDbajNEKmZUKn6in3K/O2vkrxotnzE/Vq6yysORls/GZY8cjTcqMzHJWm67X9UBpjVjqm/CRIpbbAw7kxlHIC9HJRpPIUlxyuOkpNMi0TKt+b/qtRryt03sdrYZPwrhWgLIuIMqZxGbzXzfBLUA71tWizfHWcaY5yg0zKZfqrlxzXwNCQtlZUc0k+3xwgznli1vRNkN6L9JRCe/T4ygnq1dZZNJfy97I8LoPOtw95KH33JIe/bVI6NMMYca7yDyELtAUezo2h5JfEfZ1yLjmmdrwazrou/uoXQSsR+gAYlGURUcY0Uve97gS/K2akr8WXqE4FT3mBzAiPiIVG93ENCg1payWeQPDi29rmMWFUOBIJ2UQk9bme0vw9eprbpl5tnUXbw3bEWKq/io+60jc/MvvFBR7FNunK+PnRr3+KpsyIo8pPgFRqCzycG0MpL00vF52Xfs+xsKS/L7Xj1WhoZcL38UrSUnjXSlCWRYQZ4+d4I/Obt19joK/cleDOTVtzVUXGP1l94biGDRrT1kpvA1ajs4BR0TCBu0Opz/WU5u/R09w29WrrLJpLyUBmmWdp9pnkdUTlyn+1MzJOLB85LrFGfKj8JGgdbYGHc2coOUG99ynHeZU+P14WKX2I3ztXK/XveR8vQhbTB8CgLIsIM8a90Mx7s9K6/d7qL5R7EtK3vnct5YKMusP91ZnjGgpoTFsr8Q4Ic9CYx4RR4WuU3mH0+MoJ6tXWWbSWsjtx96K8eGhR0jR+QVVnnxGMpryp/DRoGW2Bh3NrKCVd3fdk5cNjYXlz1omFnh2vhrMuoVp3vo+nQysR+gAYlGURccbYl2Tp8fK5kejt/O8rr99/09NWninbZuf0Vz9Bg4UGtbUic9pT7EHjnDtWRe225ebP+k7Vk9uvToj0yOdBCpkV6tXWWbgerq0kHJ+s8NgiLbOt5PbP9lqR7NjZL/OW8tOgVbQFHs69odSXp/poZPomoSax8yrZ95BFSpneMdV/NZx1ibo3fh9PhlYi9AEwKMsiehkj7wnl9PYN+TKb6U1S5FXVHylc3lj7Lhb0lcv7rxLVD1kHylV1+QOOie33Q3VWP66hhoa1taInjV1mO/F4kW3P5jFRu2E1rLDMnEu25zM9a4xYhEP0xf+f6VlFREaaRmaBerV1FpWHxZhkcbGR0idpFs3hnwBevtWYmaueWX9GWCRWz8iwTNexxKLgmPKzIJ3aAg/n7lAubzRlpb5X5nDOXyVF5uSvvOb5okNVFrOsnt6r4aybkGnN9/FiZDF9AAzKsoh+xmSff6HEpswuU355tSyS8fwq1m/JSkc5kb6ysklk5UqofDs2LLl8tPpxDQ4kpK2VxjrbIuagcc4dUWGOmPSR8sIy8y/bs/QQ5IRFhARonHWXetYvkJEM63BkGOrV1lnUHpZtVPsofVIknsk8JhZYP9JPJKeU+z2o/BxIsbbAw/mLUJYpal6qs44XT0/0ajjyQvw+Xousqg+AQVkWcW3G8JvovSRncKnya8DL2QUuug24ehoQypGh6CBABpRlEZdmTPOfLmdwqfKLuM7V0wAX3QZcPQ0I5chQdBAgA8qyiCszBlWZ5TJXzwNcdBtw9TQglCND0UGADCjLIpAxdwJXd4GLbgOungaEcmQoOgiQAWVZBDLmTuDqLnDRbcDV04BQjgxFBwEyoCyLQMbcCVzdBS66Dbh6GhDKkaHoIEAGlGURkjEAAAAAuAi9cQGDsiwCGXMncHUXuOg24OppQChHhqKDABlQlkUgY+4Eru4CF90GXD0NCOXIUHQQIAPKsghkzJ3A1V3gotuAq6cBoRwZig4CZEBZFoGMuRO4ugtcdBtw9TQglCND0UGADCjLIpAxdwJXd4GLbgOungaEcmQoOgiQAWVZBDLmTuDqLnDRbcDV04BQjgxFBwEyoCyLuDlj+M+LX/WH+y9Vfgp3uvqhwEW3AVdPA0I5MhQdBMiAsizi3oz5x6uyIU/Pwf646JkuOmtrfT335N7r9zstk/herXE7d0EztAUeDkI5MvxyIkAFKMsidmRMOveXg/+/r6/vX+fsL2RYSAcKnMsrUC7SLt4VWSl/lbq/f2rDO1s7rsFAMto6hdpDXQtqyppDVO4vZd6V70LatHWch5VlSzgbanT46+f39+dnqcDczp3QPG09GnoDkwvqAHXfzfde3pEh+7UFxkMSTB8Ag7Isopcxy1VBhxahh5g5APnWShJ0NxA/Se7HuVpYVz43Vv5KmipYyLm4jHKjmtu2Ioy3dlxDDQ1r6xRkfVk9oUZGFtSgLOtyT1kmr1HC1eMucWhdmqmtByMeSJQBWvqb72ZX4EmQ6doC48GphQAVoCyLiDNGj67s2Kd/YJY9IrLnOGPJTHCH8oqmgKOcSsPqEN4kuqsf11BDg9o6BbEgX662qQvbvCd+93Cmi87aWl9PHYm3kUWktvYU8RLWCLdzL7SQth6L7v/HBqh+D+q3OxZ4FmS4tsB4pLxCgEpQlkWEGSNnlzn1pbM43nbdC/Zu26G8onk/NgdWRLM5lt9a/biGs09PZzXXqpC+627lTBedtbW92dWM+w54DVLQ1MQD1gi3cy+0jraeyuI0GyD3Lcg92xV4GGS3tsB4UHQQIAPKsogwY/zrKO/dfy1UuvrKLe5ZykSzFDP5/dVP0HD26encI04XdUafoTEWOxt4Z/pheJHc/vS97Gx1893xXbZlQl/e56+KJSot3h7zGUm8dntsdgUvwfOdCPJgAQ27nQuhWxIvsU6fnsnmMxsg+yxkvV2Bh0F2awuMB0UHATKgLIuIMsa94stuPsi+f9IVtN0C3kfjqxNvh3IDq3CH9hyn5ez3Vz9Dw/VlmfQUrtAu/eSf1gqZhHGe9eWb0w+T1GdbEqdvq1OBsy21yzaBhBofIBIlKrHJ5F61e1z05p9KSuw024HldboXw2V7qpHqwEYnS3fckvlFO54I71J3ZQIkDsgjyGzdXYGnQWZrC4wHRQcBMqAsi4gypn94STNBd0B+CdhZ5twk3j4Z5S5pjhTKK9TQdfbbq5+ggaAhbZ2CLPYll/Lie4pE7GbTZbxXPr49/TCkLdPOizW077StmC8CVUepRaZlQp5PcqNUyT6zPXiBzQbXp65Op1OMCdwiTzSJ/l96Hki5ceMwxwWJrbsr8DTIbG2B8aDoIEAGlGURUcb0Dy9tlneFM81cO4m+8gLpt7cS4yg3yORc5s3VT9DA0JC2TkGtMuR1GUvwd9kyfvlLLI0rrXh8f/ph0g42/8kOix+9WPjMNlFo9NtwLasuE2uf2CmuWtdsh1qj51SWMn1Op/QEbtlWo//wlAfCDto8ZvxVO5TZursCT4PM1hYYD4oOAmRAWRYRZUz/8PIl+JDMe80hyrx3MlYqNzzlBTK3vNA+Wf2IBoWGtHUK9WKvX+5abRXLPdbdsMi2t+Lx/emHYe3ZlvRDULRG+qZctsxnthmXNawX3b6UO6WKRNPsGp27fM2T4cmO5e66RaeY7qFim/30X57yOHgLedqbmFTRELbursDTILO1BcaDooMAGVCWRYQZ495ARa8rwZ3b6dY47PrKN4zGjN5JKuNHVj+uYYPGtHUK/uZzZ6k55ddOGBZNGIuLx/enH4a01VvKPj+/LvWZbcZlDeu5uyHlTvEj4ZldofnlUUxiOXfdolPNa7tls5/+q32PQhymHwUU5PN93MM/W+HGKO/tCjwMsltbYDwoOgiQAWVZRJgx7mXDZ9fS6Unosbmcbq4Soq98wSjMaSkXZNQd3rn6cQ0FNKatU/B3n9vgSxSw+Obc4vH96Ychba0VX4V3P7PNzPKVSO87PomMKc228EzHf9UkV7DujCxhNsX0H+17FLLDFuwM1wm5R7sCD4Ps1hYYj5RWCFAJyrKIOGPk9MqPfT0T17NLjrJcwvS4ByDTVy7US6y0lWfKnHnEjtWPa7DQoLZOQdYL3VUbmci+eCLym0D5+Pb0w5C2tgd5sWXwI9usy1iklNEyKusr9VTD8tEtYpfZJW4IGVlmG2HJcjNuZ9ctq/30/9r1dMoAEbUTpGf1Z1fgWZDh2gLjkfIKASpBWRbRyxg5w+kAk28WyEN+dOlpphLVryCQ4cZZ11WesNdTRqBcVeff6RC2XyDVWf24hhoa1tYp6N2Smag25NfNug/9UVn9ec1Vgsebj+9OPwyvtvgwbXD5RQ/LNwQz/35gW50yqmRxI69hZhk9omOZwe0vTvydZmfI4rvGeFXraLdTd9R0y2I/oT1PxwQooU5ov5tdgSdBpmsLjIfklj4ABmVZRD9jzO/FdH4dZ/pqwSZBt9Em4V4bGV3lcoX4GgLl2c1jyOWj1Y9rcCAhbZ2CYyNXA9aIIkAmQvZKc264d6YfhtfYapFo6cS7tonLzO2bPp+/KnE8WOtJy4q4rski+81WeFazFihH3Wx3O4meAcu4Pj4dJ9Bpj72z5b2Xd2RoA9oC4yEZpg+AQVkWcW3GtG6NU7hU+TXg5ewCF90GXD0NCOXIUHQQIAPKsohLM8b9R+xZXKr8Iq5z9TTARbcBV08DQjkyFB0EyICyLOLKjEFVZrnM1fMAF90GXD0NCOXIUHQQIAPKsghkzJ3A1V3gotuAq6cBoRwZig4CZEBZFoGMuRO4ugtcdBtw9TQglCND0UGADCjLIpAxdwJXd4GLbgOungaEcmQoOgiQAWVZhGQMAAAAAC5Cb1zAoCyLQMbcCVzdBS66Dbh6GhDKkaHoIEAGlGURyJg7gau7wEW3AVdPA0I5MhQdBMiAsiwCGXMncHUXuOg24OppQChHhqKDABlQlkUgY+4Eru4CF90GXD0NCOXIUHQQIAPKsghkzJ3A1V3gotuAq6cBoRwZig4CZEBZFoGMuRO4ugtcdBtw9TQglCND0UGADCjLIm7OGP7z4v99/+rjuVyq/BTudPVDgYtuA66eBoRyZCg6CJABZVnEvRnzj1dlQ56eg/1x0eSiO0165N9WPYcRsxF8BEI5MhQdBMiAsixiR8a8fr+/UsHDfH19/zpXWCHDQjpQ4BROgXKRdvGu0Ur5q9T9/VMb3tnacQ0GktHWKdQe6lpQU9YlonJ/mfKufBfS9oyyzHO+myLDQiZra2JeP98pTkP/a+04/0QoH0s6HBCgEpRlEb2MWS4funEIrUDMLcY3W5L4+U38JLkf5xhkXfncWPkraapgIeeQNcqNam7bijDe2nENNTSsrVOQ9WX1hBoZWVCDsuyztazz1xS5y/LDkKnampTl/SRQloE/Q1JQHwCDsiwizhg917Iz7SU12Naz/15myUxwh/KKpoCjnErDzShdbJPorn5cQw0NausUxIJ8udqmLmzznvjdQ3LRnSZ9vFbt/JQA4v+3AvBnkJ3ampD1dZWQPCIgnzN1KB9PSkQEqARlWUSYMXK0mTurvI74adetZu+/Hcormndo/3IVzaXd761+XMPZp6ezmmtVyJ010A6Si+406eO1WqFmhUEOjANZqa35SNGRqHZeyTmYOZTPJ50HCFAJyrKIMGP8Kyvv5TNv16VW6eort7RLjmiWYia/v/oJGs4+PZ0bx+mizugDcMZiZwPvTD8MaVt1Zgt/fTtLpG9zr4ZVlgk9GWt/Ie9/M15wPZ2QgXyk/IxivRe2geSTmIiQjNipH43iHuuBnlpim56xWEZNaUxNM04z8W+E8qmklw4BKkFZFhFlTONAy7vlQvlJV9l6/KfPmFX3Q3V771BuYBXuUKXcoZz9/upnaDj79KwXk57CFdqVosIf/EtPuYRxnvXlm9MPQ9rU0wwt3PjUnhimEptM4fodMqX9svK2WarLWjsT3V6k1WXLzJ4H11VZjO1Mj6ktoltXPmu3WhZYxtPDYhc9S2tq2nGaiH8jlE8lvXkIUAnKsogoYxoHWtYtzQSd9/n1YGeVl1+ir9wgl0xzpFBeoYaus99e/QQNBA1p6xRksS92/Op7ikTsZtNlvFc+vj39MKRNQ51rXXZqOkrLZNomtEemtJ9nZIMRxg85xiev31eh0QwvRuUzxPK6K5/VU8vPmX3l5kSftKcmiNM8/BuhfCoUHQTIgLIsIsqYxoGWdWszuysIZ5q9IYi+8gLpz2+lFUe5QSbnMm+ufoIGhoa0dQpqlSGvy1gifUMsh79VtrrS3ObF4/vTD0PaPJ3Gr76bpbcwviPj7ZeenG+GVvjqE3YJSzWz3q+jvL2eYgT4sVDKy+i4CKMsm4R/I5RPJb1pCFAJyrKIKGMaB1rW7Uvw8Z/35vfBQl95TqVyw1NeIHPLW/KT1Y9oUGhIW6dQL7b8KOBiq1juse6GRba9FY/vTz8MafN0mq02VhV7VWqPTCW1fhiLvzsY7aodaW+Eqtmf9fe98ArZuGMpdxUq3PUitVZFsQo//BNXRTtOE/FvhPKp8KuGABWgLIsIM8a5Loi815WQI389CBvnYl/5htGY0Tt0ZfzI6sc1bNCYtk7B33zuLDWn/HIXw6IJY3Hx+P70w5A2T6fZamNV7l6k9sj4UtnH/ts7a2aeDGQTtw/y52QzHRu4q1BerbdPbfri6foN7m0RGUNZNgn/RiifCr9qCFAByrKIMGPcE00OdO30JMy11DoW+8oXjMKclnJBRt3hnasf11BAY9o6BX/3uQ2+RAGLb84tHt+ffhjS5uk0lviGSW9sfCkT2f/ioebuffX1Avqc/QRoNdOxgbsK5WZWVy0/fq0/P5C+/Jd99U+EUZZNwr8RyqeS3jQEqARlWUScMXr2ZxeGHufrKSdXVy5hetqnYl+5UC+x0laeKXPmETtWP67BQoPaOgVZL3RXbWQi/3oXy28C5ePb0w9D2jyddqvlLhkto7a+PTKh/TzWiqbrfOksuusF5MtcoYiztFmvqzYJUCWmTxWiTh9mxo3TbPwboXwqFB0EyICyLKKXMXz6E/obBuQhP+OWi0gkql9lEB6KXeUJEXI1BMpVtWjO2X4RVWf14xpqaFhbpyD719/+wKgN+XW97kN/VFZ/XnOV4PHm47vTD0PaPJ11qNWwZfvOznfJ5GulRfgzZbxTEW+Gs3K+ak+uKrwhRuj3EtfvjuaKnf1yV7G29UBPrchnfJm/2flLfdqcECrAFXbDEqddP83xPKYO5eNJCYgAlaAsi+hnjPn9mt7vrKR/p28SxcnHd0N54RR0levl52oIlFd30kouH61+XIMDCWnrFBwbkw3VzVMEyETI1gROifDO9MOQNtcG3qqpkdLn8wvvO3duT6ZYK9ypoXa+aHdm5L/UNX0rkdc8WpZ11fKEZJKQ/lQti64S1NbWhLAzHAqfTgNtTFtgPCTz9AEwKMsirs0YuRnOu7MLLlV+DXg5u8BF5+CUera0g6unAaEcGYoOAmRAWRZxaca4V8NZXKr8Iq5z9TTARadQf20tUb4zcPU0IJQjQ9FBgAwoyyKuzBhUZZbLXD0PcNE5SF0m31jVb2LK92e3Ug2ungaEcmTSa4cAlaAsi0DG3Alc3QUuOo3yk3JcohWflaMubYGHg1CODL99CFAByrIIZMydwNVd4KLbgKunAaEcGYoOAmRAWRaBjLkTuLoLXHQbcPU0IJQjQ9FBgAwoyyIkYwAAAABwEXrjAgZlWQQy5k7g6i5w0W3A1dOAUI4MRQcBMqAsi0DG3Alc3QUuug24ehoQypGh6CBABpRlEciYO4Gru8BFtwFXTwNCOTIUHQTIgLIsAhlzJ3B1F7joNuDqaUAoR4aigwAZUJZFIGPuBK7uAhfdBlw9DQjlyFB0ECADyrIIZMydwNVd4KLbgKunAaEcGYoOAmRAWRZxc8b4f6rvJC5Vfgp3uvqhwEW3AVdPA0I5MhQdBMiAsizi3oz5x6uyIU/Pwf646B0ueuTfUz2fEbMRfARCOTIUHQTIgLIsYkfGFH9az/5dPaX883tJSAcKnMIpUC7SLt6VWil/lbq/f2rDO1s7rsFAMto6hdpDXQtqyhpFVO4vWd6V70LatHUdH5dlnsPdtHgEZL62ZmTHyzsPtENtgfGQFNQHwKAsi+hlzHIR0e1D6DFnbjS+5ZLEz2/iJ8n9OHUZ68rnxspfSVMFCzlVn1FuVHPbVoTx1o5rqKFhbZ2CrC+rJ9TIyIIalGX7sQ5f0+JMDxyw7z1oEW3Nh5xJ0cs7FbQ5bYHxkOzTB8CgLIuIM0brjvxLUHLebT3772WWzAR3KK9oCjjKqTTcjNLFNonu6sc11NCgtk5BLMiXq23qwjbvid89nOwil4+3XDs8BV18/pbTY24KCS2iremgQHkv73khGoyJQzkBKfUQoBKUZRFhxshhZu6H8mrip103iL1rdiivaN5X/YtMNJd2v7f6cQ1nn57Oaq5VITfVAHs52UUuH2+5FV5WGMT9TW4KCS2irfl5/714FP9SKJ8HRQcBMqAsiwgzxr8e8l4+7XYddpWuvnJL+2iNZilm8vurn6Dh7NNTLHLKMlMflJ+yMR8/MxY7G3hn+mF4CV4pfR6oVpu+tb0aU1kj9GSszYW8/w14wfVuQgbMSOi3xqJsWoko5QFqkk7uza2M9isKrcnLMvo4P+blnY1/KZTPg181BKgAZVlElDGNSyjvlsviJ10L673gfrqWBfNTcYdyg3/BJCrlDuXs91c/Q8P1ZZn0FK7QLv3kn97fmYRxnvXlm9MPI4s1PqknxqjEJlO4e4dMabPEddsglUit3YhuL7rqpm1mx2/NRV/pmafK2K++SzIhoe5ZyrLefj2bxQH0P32eHvGeF7g5+IdC+UBS7iFAJSjLIqKMaVxCWfdyJfAlkt8/dpbcA/l111duaJ+stfIKNXSd/fbqJ2ggaEhbpyCL0QUtiO8pErGbTZfxXvn49vTDkDZtLbtbVUtHaY1kxSa0R6a0mWfs3IDZe857fosX9Xwqm6jmiNZwv7Utqp/+TzumJBW46a1YSmI3bJMweSgfTko/BKgEZVlElDHO3ZLIurVZXhXONL4HSkV95QXS715kjnKDTM5l3lz9BA0MDWnrFNQqQ16XsUT6plYOfx9sdaXe0cuU4vH96YchbdqyvvRdK72FwR0Zb4/0VH+Ft8ZXn3DMiPwWL+r51Pezb1BpjH1cVdH/a8+MyK5X0hcfXWdPAW1QW2A8JAP1ATAoyyKijPHP/Lzbl+BjP+/lDiPVV55TqdzwlBfI3PJG+2T1IxoUGtLWKdSLvfTHAhdbxXKPdTcssu2teHx/+mFIm7bs9horiY0qtUemknotX+LlbzlGO2lHtxyR9TzWVaNFvV34O/N7df3NzkJsfaD/cMf0aEnseWoS/plQPpKUeghQCcqyiDBj+leBK8Gd26XQuMv6yjeMxoz2RSnI+JHVj2vYoDFtnYK/+dxZak75ZRuGRRPG4uLx/emHIW3asttrrMTdi9QeGV8q+9h8ezfNbJOBdaIuEPmNaSzq2efvzO+V7tzOTI6bPET/5cF/g8onM/FvhfJppMRDgEpQlkWEGePeQsXx5kmYK6p1lfWVLxiFOS3lgoy6wztXP66hgMa0dQr+7nMbfIkCFt+cWzy+P/0wpE1bdnXfGOmNDS5lIptfufNqfPX1Ai05n2pRzz7f5n37Jdbp3JAJ1OCxfwNxcuXBOfi3Qvk0UuIhQCUoyyLijKnPd+nZLoL6sDM97Ruqr1wIztO28kyZM4/YsfpxDRYa1NYpyHqhu2ojE/nXbVh+Eygf355+GNKmrWp7TiJoRWPM78iENvNYK4Kuw6Wz7O77rcAs6i3TsLnaG812+pb539/ZStTi/84HOdB8bk+dYmM3C/OGcgY48xCgApRlEb2M0dOMD/Tv5Rsu9QVEsET1aw28G2alqzwhQq6GQLmqFs0526976qx+XEMNDWvrFGT/+psRGLUhv5LXfeiPysq3zTYJHm8+vjv9MKRNW0541Zj1l0HoU7H6Dpnc5rQIf7yLdyfizRBWDlftyT3GA6Hfeouuk2kF/QnC3OaCHftlxPbEshI1pTEd6141Unbn00F70xYYD0k+fQAMyrKIfsaYX3vp/IpP+peolmNEumw2CT4fvctE6SrXi9DVECjf7iBLLh+tflyDAwlp6xQcG5MN1Vf3igCZCNn73rn+35l+GNKmLd2euUrTR+ULj1e77csUNoe7M9QOF+3+jEBzd1EaXwbFzsjPe3yyGr/poAdtTQi/mX2nTAJtUVtgPCQH9QEwKMsirs0YvglOvLMLLlV+DXg5u8BFl2ErO7h6GhDKkaHoIEAGlGURl2bM2V9JKbhU+UVc5+ppgIuuonph4OppQChHhqKDABlQlkVcmTGoyiyXuXoe4KJrkG9hFi8MXD0NCOXIUHQQIAPKsghkzJ3A1V3goktwqjK4eh4QypGh6CBABpRlEciYO4Gru8BFtwFXTwNCOTIUHQTIgLIsAhlzJ3B1F7joNuDqaUAoR4aigwAZUJZFSMYAAAAA4CL0xgUMyrIIZMydwNVd4KLbgKunAaEcGYoOAmRAWRaBjLkTuLoLXHQbcPU0IJQjQ9FBgAwoyyKQMXcCV3eBi24Drp4GhHJkKDoIkAFlWQQy5k7g6i5w0W3A1dOAUI4MRQcBMqAsi0DG3Alc3QUuug24ehoQypGh6CBABpRlEciYO4Gru8BFtwFXTwNCOTIUHQTIgLIs4uaMkV82/v2rj+dyqfJTuNPVDwUuug24ehoQypGh6CBABpRlEfdmzD9eleH07DOziwb7O67IxmlAKEeGooMAGVCWRXQz5vX6/f5K9Q7z9f3zW90qpcTXdy2hOIVTb+7r9+d7Haflm7pr5adZ/hITvIJvv3kMyWjrarwaVfoG//PuF7pI9p/zRTF30uIqUJb9CfSSS7THzvwj/CuhfCacfQhQAcqyiE7G8EWSrq9vYrnUyrpK7zoViQ5AFs2HunNleb47f5cCqHG4GuVGNbc/sXwRIuqy7A3zBBrX1tWI3bnJamxk3ghc6CLxiYSbWUN7gVe8Eszr+0PIGG3NzPYGD5/7n0O70xYYD0k/fQAMyrKIOGPoSPvKv5qgR9x221cd6QtQpmeBZbOjsTu31iQ93vHqKPcs3yS6q2dzfrmRG5J4xzyFRrV1NWL7aly921G50EXGJ8xLYnu+azgXTCp4fX8IGaOteeGYf/38jOX50/kXQvlcKDoIkAFlWcSbGSM323q+mUfBu/0Ieyd153qXWEP3jgtPZq5Tu6vLkwi4q75j3gINautqCkvkIXTPMFzoolZ0OJJR2D7BS49+lt4KGaOtaWGPU2AH8/zp/AOhfDAUHQTIgLIs4s2MMRe8f9q5vVVnb65fS7yxYsnnlvv3+TvmrdCgtq4mM5ltqouO8qN36bN3xuric3Ppa4/afy20lrZOxwsjIwM2wOHnDiPvicMLRPWSHdncv3Q76dfWpLC/t3eg/V4+nulD+WgoOgiQAWVZxHsZY274xj3ndVfnYneutOxR6k7bc+iWpndXL/C63zBvg8a0dTWLIb6Zq/nysTjvc3Hir22cCoTQv2dBi2rrdNrBqbzUcU9vOHWyhAj8akknPmX4E27O5xnvdDstpK0p4SCp+/acEE9m8lA+nPRKI0AlKMsi+hmT7ph0RSyXT3atNe45p7s+FvtzpWnOUm/ajjNXpm3z+qvnuN3SucO8DBrT1tWodXzxu655/b6KXuNEnh/79BoudFEQnHL3jqDp6niP8JKS+4peDdPacavbaWVtTUjpSS8aMzF1KB8PRQcBMqAsi+hmjFwcK+nf8eZSqe65uptPxVJux9xl6eVrB1oYEsU0R7lBFWUyO1bP8Lt3mpdDY9q6msVkqQR2XEhmj/JY/NTEPdCq2jodP4yJZbeyWX5K37XM4d+y0PRjrdorBJw+M3Ex5Ba300ramg9zKHjRmImZQ/l8KDoIkAFlWcQ7GaN303a+1ZcRU3WbM5LZN9d+wEdqn+J89ZQXsEB8Gy68173LvAKS0tbVbCZ721cooGSxwvvI9qi/rU32dV91Rgtq63SaYTQj4jGPwouh90SJ8brTV9l0o9tpEW3NBju6F42ZmDeUM0DRQYAMKMsi3s4YubP0yPNPO9PbuA13za3g8eIWc5WvyPjB1XuLbFjzDDSoravJTXZ9oBW2wZqeff48CMqZ0EraOp1mGGVg3aBmQfnVMkbGib73vFRy+nyb7nE7adfWXGg4t99Pt3yKj3tu+tGVe5k1lHOQcg8BKkFZFvF2xvDVslwW7qUiEmtn6zLcM7eCx7PhlnJBRt3ht1aPV8mw5lloVFtXU5pcOUI68h8vjPb46oXlRGgdbZ1Oa4vqjLX+iVzB7PEeu+zTsky42u2kW1tzIT5tcWGd+3fQvrQFxkMSTx8Ag7IsIswYOt/Mx1z0plivCr2gspNOz8T1LmnfO/25htYEX35V5p/C76weLbNRa6ygcW1djTVZN7dYVxcI8vWf1h5ZvueAU6B1tHU6bhjVMUW3H8nty2V7vOctVs/zbVq51u2kW1vT43h+Kv6hUD4Qig4CZEBZFhFmzHJlyVf/tz9Wk18UfOARIqISm0B47XTmylnKY+tocbQGylX1Mntj+x5GZ3VS/8sjBA8u3xVZCtWueTUkoa2rcVwj+1UL9YE24/6wQprOH27iH2aQYdfPp0MLaet0xCfZN7eWXdNGTdjW9PnJf5xjjW7He8yqgtbRH1/mrjJFyjjd63ZSrq3pcTw/Ff9QKB9Ieo0RoBKUZRG9jOFPuSzXjlwZ9mzLPggjEpkA3zrBcRjNTWXRtnQaNUsHyuW288jlw9XXi7VCL8qeeQ4kp62rKa97Rb6mox5YP1tOJNt5t+sEszkn7BdBq2nrdOqkSDE3v+piJfZA7D1B3J1Ql3fLsnvdTitoa3pQloG/I73LCFAJyrKIazMmKJyOc6nya8DL2QUuug24ehoQypGh6CBABpRlEZdmzKX/Rn3iP4Cvc/U0wEW3AVdPA0I5MhQdBMiAsiziyoxBVWa5zNXzABfdBlw9DQjlyFB0ECADyrIIZMydwNVd4KLbgKunAaEcGYoOAmRAWRaBjLkTuLoLXHQbcPU0IJQjQ9FBgAwoyyKQMXcCV3eBi24Drp4GhHJkKDoIkAFlWYRkDAAAAAAuQm9cwKAsi0DG3Alc3QUuug24ehoQypGh6CBABpRlEciYO4Gru8BFtwFXTwNCOTIUHQTIgLIsAhlzJ3B1F7joNuDqaUAoR4aigwAZUJZFIGPuBK7uAhfdBlw9DQjlyFB0ECADyrIIZMydwNVd4KLbgKunAaEcGYoOAmRAWRaBjLkTuLoLXHQbcPU0IJQjQ9FBgAwoyyJuzhj+8+L/ff/q47lcqvwU7nT1Q4GLbgOungaEcmQoOgiQAWVZxL0Z849XZTg9+8BFGdemNFw9DQjlyFB0ECADyrKIbsa8Xr/fX+lyYL6+f36rvw5eSnx91xKKc8v05r5+f77XcVq+qbtWfprlLzHBux33m8eQjLauxrvQpW/wP+9+lYs+q3D4D+L/ncs+M3ovV7l6DHa8/vNAO9QWGA9JQX0ADMqyiE7GyLWUKhZiOeOKa0JujlVEH9x7jEXzoe5cvRXTmfq7FECNO9IoN6q5/YnlixBR345vmCfQuLauRuzOTf7jCmMvV7modsgexGm9avsyPjN6L1e5egT6B9dU0Oa0BcZDsk8fAIOyLCLOGLoWvvJ/ZWqRsh1vVUf6ApTpWWDZrCzozq01SY9XWjjKPcs3ie7q2ZxfbuSGJN4xT6FRbV2N2L4aV+92VK5ykXHIM7jW6KtcPQDkuPjgmoyJQzkBKfUQoBKUZRFvZowcb2vhYR6Fxl3CNUtZOMVz7YREQ7crWyIz16nd1eVJBNxV3zFvgQa1dTWFJfIQumcYrnJRLzRDcq3RV7l6RJ70CnzAvxTK50HRQYAMKMsi3swYc7r51ZDbW3X25voH6RsrlnxuuX87vmPeCg1q62oyk9mm+m4vP3uTPnxjrC4+N5e++KD910Jraetc6hiyX6gj+SFtkaicYGYtUzIqvYvMojV3XOHyr/iTlGm0NvpMSLW25kc82X4zH86/FMrnQdFBgAwoyyLeyxhzwzduDa+bZ+anYneuf5C60yrlDqXp3dULvO43zNugMW1dzWKIb+ZqvnwszvtcnPhrG6e6LPTvWdCi2jqXOjK6Q/WD/+lCM4uneHmQ9YnahGpdyrKdLqc+/jyUWJNoptNBSLW2pkdce5Uj/55/KJQPJOUeAlSCsiyinzGvdInQNbLcI9nZVl91jNPNx2J04S1k3XqNldWAN61WXiHTtnn91XPcbuncYV4GjWnratQ6KTo817x+X0WvcSLPj316DVe5qI6MVkHZJuuQmlk8pYxupbdWy9Trm67W4nbB8yDV2pqS4OCajslD+XBS+iFAJSjLIroZs9wNSvq3vrnGquOu7t5znQl597L08vUFPV+JYpqj3KCKMpkdq2f43TvNy6ExbV3NYrIUCTvqK7NHeSw+Nn0PtKq2zqWOIbum9EwlZDr25LGjlmAx/r5kBn+fU0Vr+wi38zRItbZmRHy3Uhxc00Eb1BYYD8lAfQAMyrKIdzJG75Ht0mncGlW3Vzjtm2s/jCO1T3HpecoLWKB3/wrvde8yr4CktHU1m8ne9hUKKFms8D6yPepva5N93Xej0YLaOpc6hk79VAmZDifXqimOWkKi4KGi7rTa6DMh1dqanOrgmo5/JpSPJKUeAlSCsizi7YyR+0VviuAK2nobd8uuuRU8nunqXVwyfnD1/bejNc9Ag9q6mtxk1wd6URms6dln0IOgnAmtpK1zqWPoBLsSMh1OeKspYWaVXy1jSoFyWm30mZBqbf0LsIMv8+Uf82+F8mmkxEOASlCWRbydMXK66f3hXhvm/GtdLXvmVvB4NhzfWzLqDr+1erxKhjXPQqPauprS5MoR0pH/KGC0x1cvLCdC62jrXOr98aY+KMs6UxwZInIv4wp0Zx2CVGvrX0ByuArMHPxboXwaKfEQoBKUZRFhxtCtYD5dpBf0elPIvZGfddKzXSXtm6U/19Ca4Muvyvxz+J3Vo2U2ao0VNK6tq7Em6+YW6+raQb561tojy/cccAq0jrbOpY6hUz9VQqZDsr8aL7octQmRtP32y2W5wPKdt8LoMyHV2poNcnbn4JqMeUM5A5x5CFAByrKIMGOWS+c//pF9/4+Y6HGnIiqxCZh7raQzVy44HltHi3stUK6ql9kb22+R6qzOR7nCg/z7DojlvO+aV0MS2roaxzWyX7VQH/inFZwfVkjTl1/lsHwf0/Xz6dBC2jqX2iESvyJglZDtkGcNu/yYK/9/NsVRK4jLk8/zHxHZJFfdolyaRvmpkGptzcbiyuX11KfLPPnn0N60BcZDkk8fAIOyLKKXMfzhouVUk5vaXjjm144Wv5GTz8egVonmprJoWzqNmqUD5eu5XJHLh6uv92iFHu498xxITltXIw4w15B8+UU9sH6kn0i2827XCWZzTtgvglbT1rnUDvmkLEuO+VkcIyEv/RaUZUTPq2m8GLTKT4VUa2tCdhxcE0Fb1BYYD8lBfQAMyrKIazOGb7XGFXWYS5VfA17OLmO5qC7LJgLZOA0I5chQdBAgA8qyiEszJvrCwWEuVX4R17l6GsZy0ROTbDfIxmlAKEeGooMAGVCWRVyZMajKLJe5eh5GcdFv+oVu8k2wSb9YhmycB4RyZPgUQYAKUJZFIGPuBK7uMoiL5KN2VPhXf8F9HpCN04BQjgyfJAhQAcqyCGTMncDVXeCi24CrpwGhHBmKDgJkQFkWgYy5E7i6C1x0G3D1NCCUI0PRQYAMKMsiJGMAAAAAcBF64wIGZVkEMuZO4OoucNFtwNXTgFCODEUHATKgLItAxtwJXN0FLroNuHoaEMqRoeggQAaUZRHImDuBq7vARbcBV08DQjkyFB0EyICyLAIZcydwdRe46Dbg6mlAKEeGooMAGVCWRSBj7gSu7gIX3QZcPQ0I5chQdBAgA8qyCGTMncDVXeCi24CrpwGhHBmKDgJkQFkWcXPGXPqnn8f/u9J3uvqhwEW3AVdPA0I5MhQdBMiAsizi3oz5x6synJ59nuSih/8hc2TjNCCUI0PRQYAMKMsiuhnzev1+f8mfbCa+vn9+q1uolPj6riUUp3DqzX39/ugfjE4Eumvlp1n+EhO8gm+/eQzJaOtqvBpV+gYvI853kWw77Two2SkRRCiQqTipLPuruNCi2gIP5xGhbOW5/PnZd168h5G2h3etBGVZRCdjlj/Y/PVN6MVVvkDLpaci+uBeMSyaD3XnyvI0/PP7uxRAjevLKDequf2J5YsQUZ8bb5gn0Li2rkbszk1WYyPzRuB8F2UhbO0+jHIbdulxj8rq90eGFtUWeDjPCKW+ZuUr9lfZfyNp03jXSlCWRcQZQ6/MV/5Fpuq9ql+0l1z/zu3Gstnr151ba2qXFo5yz/JNort6NueXG7khiXfMU2hUW1cjtq/G1bsdlfNdpK74TsHxY8Nx+/5xoxzB84JwDw4Zry3wcJ4SyvqErE/R+Ug7xLtWgrIs4s2MkStufa3Mo2AqggV7h3XnepdeQ/eOC1JmrlO7q8uTCLirvmPeAg1q62oKS+QhdM8wnO+ixRXN4HAkg/Em/awbGjJeW+DhPCaU5ih60sn0ObRFQh8Ag7Is4s2MMa+Rfy+5vVVnb67/xr6xYsnnli9zywv7HfNWaFBbV5OZzDbV5Ub50bv02TtjdfG5ufS1R+2/FlpLW2exusILYzjcc5GN9i55WmD5INvi03f1nASp1hZ4OA8KZX4ctY6mPP2/7Cd2/+ZcOoKYqg+AQVkW8V7GmNfIv+fcbnvz9OdKy5Y47rRKuUNpenf1Aq/7DfM2aExbV7MY4pu5mi8fi/M+Fyf+2sbp/Av9exa0qLbOYouJFx3u473Z0a6LTN7tlGdIKn2c0S3L+npOgtRqCzycJ4VS85sSusx7pZP+f3UuHSFZjHetBGVZRD9jXin/6Q1YXpDsVpM3qCpCnO76BezP1fezfOu8ae7bXSLTtnn91XPcbuncYV4GjWnratQ6/ken65rX76voNU7k+bFPr+F8F+UxqVIl66hi13FR7bNd8mUX866ekyCt2gIP51mhlPdAfhLLPVWLzqLrz86lI6Td4l0rQVkW0c0YeSlW0j9T1nfCeYcSdTe/h6XcjrnL0ss/jbQwJIppjnKDKspkdqye4XfvNC+HxrR1NYvJcgLuOMfMHuXxy/mlIhdDq2rrLIqdmRInzx3jgZpKwCiz7JZ/V89JkFJtgYfzsFBKRhM26Xkgfdcyh7/nr5Iy8w/OpSPIXvUBMCjLIt7JGH1BtpepcV9U3fnlt7Bvrv2UgdQ+xcvsKS9gAXMA7LVcaHTvMq+ApLR1NZvJ3vYVCihZrPA+sj3qb2uTfd13CtKC2jqLMnriDnkqR9wohy5iXSax3pRn3tVzEqRUW+DhPC6U+WuYId0e6+vxR+fSEdhcvGsFKMsi3s6Y4n3y7xnT2yhqds2t4PFMV0P5iowfXL23yIY1z0CD2rqa3GTXB1phG6zp2cdrg6CcCa2krbMw0dseubVty8jtcJFJl3flV97VcxKkVFvg4TwulNXLJuibUH61jFEB5f5z6QhiqD4ABmVZxNsZwy/O8i64L5dIrJ2NF3DX3Aoez4ZbygUZdYffWj1eJcOaZ6FRbV1NaXLlCOnIf8Yp2uOrF5YToXW0dRZ2Z8szbyo71I3cDhcVGt6Vz3hXz0mQUm2Bh/O4UDZy+r1Uv/NcOkIyEu9aCcqyiDBj6CUx38XXF2F9E/QOyW4a6dlelfaL1p9raE3w5Vdluf0b76weLbNRa6ygcW1djTVZN7dYVxcI8iWa1h5ZvueAU6B1tHUWVfTUF4l8S0Zuh4sKkXflM97VcxKkVFvg4TwulNVLqUi/fUfqL5cp/LKc/2acDNlI6ANgUJZFhBmz3l/854n0My5E/h7wi0GIiEpsAq3Xj+nMlQuKx9bR4oUNlKvqZfbG9mtuOquT+l8eIXjwS5UthWrXvBqS0NbVOK6R/aqF+sA/rSCfiGOWCWk6f3aDf5hBhl0/nw4tpK2zaLrCdFq5josIyYAl5O/Kb7yr5yRIqbbAw3lcKNtHt6R/yn8+ffQN0Lfj786lIyQr8a6VoCyL6GUMfxN/uRn8T1lm3+cXiUyA3z7nIlqI5qayaFs6jZqlA+Xy1nvk8uHq6wFRoedAzzwHktPW1bjHnnzZZT3hsr2T7bzbdYLZnBP2i6DVtHUWnisktGVfLRe7SLVkCfWu/MK7ek6ClGoLPJzHhdI9nxaCw+fPzqUjiLH6ABiUZRHXZgy/fM49dAqXKr8GvJxd4KLbgKunAaEcGYoOAmRAWRZxaca0vjpwCpcqv4jrXD0NcNFtwNXTgFCODEUHATKgLIu4MmNQlVkuc/U8wEW3AVdPA0I5MhQdBMiAsiwCGXMncHUXuOg24OppQChHhqKDABlQlkUgY+4Eru4CF90GXD0NCOXIUHQQIAPKsghkzJ3A1V3gotuAq6cBoRwZig4CZEBZFiEZAwAAAICL0BsXMCjLIjRlAAAAAHANeuMCBmUZAAAAAMAQoCwDAAAAABgClGUAAAAAAEOAsgwAAAAAYAhQlgEAAAAADAHKMgAAAACAIUBZBgAAAAAwBCjLAAAAAACGAGUZAAAAAMAQoCwDAAAAABgClGUAAAAAAEOAsgwAAAAAYAhQlgEAAAAADAHKMgAAAACAIUBZBgAAAAAwBCjLAAAAAACGAGUZAAAAAMAQoCwDAAAAABgClGUAAAAAAEOAsgwAAAAAYAhQlgEAAAAADAHKMgAAAACAIUBZBgAAAAAwBCjLAAAAAACGAGUZAAAAAMAQoCwDAAAAABgClGUAAAAAAEOAsgwAAAAAYAhQlgEAAAAADMF/+l8AAAAAAPCnoCwDAAAAABgClGUAAAAAAEOAsgwAAAAAYAhQlgEAAAAADAHKMgAAAACAIUBZBgAAAAAwBCjLAAAAAAAG4H//+3++XAW3sEt/CAAAAABJRU5ErkJggg==;" vertex="1" parent="1">
          <mxGeometry x="30" y="530" width="818" height="390" as="geometry" />
        </mxCell>
        <mxCell id="5MVP5skuAe8IDS_eW-yI-55" value="" style="shape=image;verticalLabelPosition=bottom;labelBackgroundColor=default;verticalAlign=top;aspect=fixed;imageAspect=0;image=data:image/png,iVBORw0KGgoAAAANSUhEUgAABgMAAACyCAIAAADgaSh7AAAAAXNSR0IArs4c6QAAAARnQU1BAACxjwv8YQUAAAAJcEhZcwAAFiUAABYlAUlSJPAAADasSURBVHhe7d3bYewqsoDhHZcDWvE4Gkdy3hzMnBIUiEsBarWklsX/PczQCHEp0KVZtvd//wcAAAAAAIA5LDtB/wMAAAAAAMAE2AkCAAAAAACYBTtBAAAAAAAAs2AnCAAAAAAAYBbsBAEAAAAAAMyCnSAAAAAAAIBZsBMEAAAAAAAwC3aCAAAAAAAAZsFOEAAAAAAAwCzYCQIAAAAAAJgFO0EAAAAAAACzYCcIAAAAAABgFuwEAQAAAAAAzIKdIAAAAAAAgFmwEwQAAAAAADALdoIAAAAAAABmwU4QAAAAAADALNgJAgAAAAAAmAU7QQAAAAAAALNgJwgAAAAAAGAW7AQBAAAAAADMgp0gAAAAAACAWbATBAAAAAAAMAt2ggAAAAAAAGbBThAAAAAAAMAs2AkCAAAAAACYBTtBAAAAAAAAs2AnCAAAAAAAYBbsBPX8BwAAAAAA/hT9So8GdoJ6dBEBAAAAAIA/Qr/So4GdoB7W0HkI7BAhehgmFGdgXfURnz7iMzNmH6apFgaDfSoZ7FTj3YedoB7W0HkI7BAhehgmFGdgXfURnz7iMzNmH6apFgaDfSoZ7FTj3YedoB7W0HkI7BAhehgmFGdgXfURnz7iMzNmH6apFgaDfSoZ7FTj3YedoB7W0HkI7BAhehgmFGdgXfURnz7iMzNmH6apFgaDfSoZ7FTj3YedoB7W0HkI7BAhehgmFGdgXfURnz7iMzNmH6apFgaDfSoZ7FTj3YedoB7W0HkI7BAhehgmFGdgXfURnz7iMzNmH6apFgaDfSoZ7FTj3YedoB7W0HkI7BAhehgmFGdgXfURnz7iMzNmH6apFgaDfSoZ7FTj3YedoB7W0HkI7NC9Q/T7/eUuj6/vX805z+/PP9+YNPfvp5d5A9Iv36kqMJKpqb8pTPm/n7emfMPKacfwUKyrTzpoOY390fi8bO9Vc2B8LpvTtamT7xEPcdXdgwXwxzzusbLPhYP9/LrdN9iDLu2rh+8am2gl78NOUM8H1pDeljNfX/++f34f9rSTcWmq4ed2z/n1FnbN90NpSlORsTz86tDjFzruhh5qEmZo80Fre2bmLbQDI5maCuLQyy2HMLw7DeyoKd9QzSEtxeAu9cy1rsbycXoXP2gOWk5j0oamtglfjqqrsi88sS74EmzbG1A5RVMpicLXegHJ0thS6WVz+lZTN1j8V9tx92ABzOClhbE1bmul17wqv086q6koHaz9b0JhmM7mh8VRl8j+IMtJmqr8/nwnV71Orh46pt9HDX8r11hzvPDYCeq5fg1lt5bCxkfxat/77EWkX5pqCL2/6oaRMUMXnwwXdUla0lTQXh7X//TCYTf0fFD1OMyFcPjqMGd8l3ZgJFNTQRx72ezh4zvCQVO+oZojWoqxdeZaV0N5cHIvP2iG7CAcMcmbSBua2iYG56VJW0P6/lzvszegcoqmovXn4hIbxnXZnL7T1DpTteMX/z20oyWZmkqxAA5w3M3/PK8sjM1xCwO/YhkcQ/qqqaAYbD2SYYGGdsRfsz/Ico6mMq3p1foP6vdRw9/KNWaOFyt2gnquX0PxWlyfHb/LP834zBcfKbd+Dkm/NNUQen/VDSNjhu4DtzBNBdXy+A3/Di0unuajoqGh/gr/EFEOw7gkGplvOe5iaQdGMjUVNMfx0dXfctCUb6jmgJamXldDxkD3P2iG7CAcMMnbSBua2mbnKgjh+/s/ExQDEGrya2NDOC6b03eaMub3xMV/D+1oSaamViyAQxx38z/PKwtjc9wuXAUHkc5qKohj0DeIciyj401HBWd/PXKSplahNvG1/hjQMrtf2sBB/T5q+Fu5xurxIsNOUM/1ayhejsWzI+a/cvnc+jkk/dJUQ+j9VTeMzC1CJ+1rKrCWx66lcYCDbugaaamlEXOznYMaTxw34+2+Saamgjh5ZbMfXf0tB0V9QzXvtzT3uhoKlbWicmAEhB2E44PdIG1oaptWcO5ub0DlFE2p/Xefy+b0naZa8xvzL+j91drRkkxNrVgAh/T+uJv/eV5ZGFfF7QOk85oK1sB8W9MYDv/7bgawoR3xq0jjmorCUu306qB+Xz1811h9i0OGnaCe69dQuErqZ4fxbK5/pTP+Y2S8rhPplee2ejU/O/Ey0q6mGkYvI51faA2yItkod4XOvIUNuqHnyHS6gq6MlNr0E8hSUFOBtTxi3kvzu7fbSQjtaAzaLWm0l0qMwRlz8e/HzNQThh3Ixq3H2zPujetcIyRH23/gSjI1FVgT6oQ+5ZUMZi2cZKyOpJ50Ruvh9Aa7ViaD7C3mfj+tlTOOYb/bJQ3Fcv6M62qoufDslTfoaj3fsUAnCNuW02vzbpITNbVNHRzNkc9pd4quVpELGUmM1zFrmaRmrTj5sw+HrZA+OUVTKk5auyZrwS/ZsQtv3SK8fpkqlL68yxNGuIJw5qbFX3cirVZPcAsjiYcvk2R9rf/O7vWrFdncr2KXD1sbkqmpFQsg7W8/1HajMYIJrVRbb13yzSGbvbaC0OutP54cPeR1pYyb1ave1Az6XAelPP2Nyj05pKkgGUMYXTLscFRqMwLY7bBxQn+AekK5YF6uJ5JDmgricq1mdrW299albcWrO0eN4btDG8brD+kHNLAT1HP9GgpXSX1BxiN6AVlPGtE5Gq8881S5hvzRi0iTmmoIvcxuGMH6MMslhWPAEv7w3tDVt7BxN+I5VcG1TIsU0lRgLY/Y31jhcH43dzv+ak0i1GNFw2Xk+utKT/F11KMzaux9Yx91IDaQkKat0zYH06rTWwMTSKamgnrIKjSbVDKetXBSUlk1S8Z46goy62C3jXXYz6pPG+rtdrumxX2ROshGbc9aV0N1TIJ4ZGtXzcPx9E4QtgzROL0e/4icpKlt6uCEnO5tPPQ1ZoWMJMaxolBGM9I7rRY347pzhfTJKZoKkrbd23VRn9W0b3RbpzY8vsdlylBuXyqxk8nEePGInmnOQVpvKGAsjCqrPquwFmiH0XfZrODIu0fSwNQLYBjqVqPWaVqntmFe8mtWKj8x7faGGMjBoxaG0QEVj/hqNnRrbe/1CC+652+uPJJcTQXpGEIt8bxwUDLKsQ47vCE4i3UMekK5YF6uJ5JcTal4ah2YVWivljbx8mXb6Pg6R43hbx2vz9UPaGAnqOf6NRQvtvqKDOteF7pccOkjOn7tSK6DkJXXtRb026fWmReQBjXV0OlWOBTHsA4iFo8ZYZdYiugvvO4NXfPO2+lGcvfUjsScpDmblNFUUC2PZVA+J2ato2nM74vd1qzf8COya4YvUlb7yrrSIlWradjLdhwrc9iB8DnMhIteefDFi6Wssw5cQjI1FSTFbbGS2FBn1kJGMoYiUGXcfpd/ZSlPbw426W1zMW/oZ9mJeLwZw263DVpjLB4qnGZdDZkh8YqubOjqzidRMqbGciqnYzTvDVKDprapgzPuqqgGbgy7HFFas+b5A2tlR6yQPjlFU6tYvVpmWA9VTScLfkug4untW8SWMnko80/yubNUYpc2LP7B2o6dCgFau7lmGRHoVxs+FyEM3V2L6/HW+dUcJH2IJFNTmViHmnUBhI86mPz4oNFQOG8mth7P8+WT8TWGXPW7aH/Q26SJfQujan+Vt5T3q+hlHqUNfe5eLO9VHkmepoKs4nCeDlyPuUNlB0Ydrk4Y3mTCCULz/P+8Wk8kmZpSoagxsaukG+XyiU3Eippr2Oi2+xjPaMZLhCpc/sbx+kz9gAZ2gnquX0Nx0Y9utbVwfD2zzhFGZnlpXkLa01RDe7z2kXxg5thb6sLm6UWctnTDjO3WvkkRTQXJPbEQ6zIqz/uwu9uxcV+mKDJs16DnrMeLJhyzFiNz88CTAgnz6OY6086ZHXYkU1NBKNsUKrEaqvo37G5Sjz7LE+OzrZE1utDrZ1GNdcoL3TZo6bXCUF0vMo6RmffdyUsZBRLm0c11pp0zO+xIpqY2C5UZvc7bHna1Vp9iVCKseoqSsS+b5r1FKtDUNnVwNnQ16WwoZAy7qqhuyxmeWjUmrF5uIadoKiOv1to3pZ0x+hZtCJTV87LQljJFU/GU8VJpxHxhN7zKu1B/FkYVRqlcUUA/xuLa4WKkSW15LIwemBPjSaamSiyAvEGnEWqzUeN00Wg9bzkoqigK6cciAuPeJk0UUUxIpqaCzXErKo0H6ygN+1wrTjmmcsnSVJCXzKrSQ+ZYDUU3hieU3Q4npOMQL9cTSZ6mVChZF01Y7RVNhI95l/JCRTVGJ4sSjeHXjKqEz9MPaGAnqOf6NdRe9PUR/bvuPne1nmldGLEaQ/OOcgZpT1MN9k1FNGIUsl357ENtV+iKSrd0w+6IfcOqSRFNBbHN1Zf9S7iWLDKvd7uYkbzIsF2D1pceNnpndqXOHHbArGdlTcrmOs2z6oYkU1OBWcEij3WrXNGUMYaqM7Emx/orBIaiF+nI8jZjJb1+2p+yU6qWYiknX/Ml1tWY2YKTHxl21Z2y63ZqDqgsmbffn/cmOVNT29TB2dLVmBELGcOuKrJqLoedcyXrLgq7rjE5RVOGbDtgaa3binUwD4PZ8+LELWWqpuJJTm+pNKoX9ZHB2jamuFoGVql+tWt5V4U9bks7enkdKcnUlG3iBZDXmNNWu40aq0OEU9IQNftUFs5Wl34wu5JzRcwm7N4sJFNTQaOPojhSVhoPO0mU8gO52KPBNfhe5UqyNBUUY0jm0g57UmO/w/UJGwdY9PnleiLJ05QKg6uLJqxuJFERoURRTX6i/cmiDVntepvG6/P0AxrYCeq5fg01LiURLrni6qitZ+ZXqbfhwruGtKephmLAq0aMsvtF9qGwN3RFpVu6YXfErNwgRTQVNNpMxBKGLDKvd7uYkbzIsN1aqM4Wu2d2pc4cdsCsZ2VNyuY6zbPqhiRTU4FZwSKPdatc0ZQxBqsz/vnpsh1/LDZhKHqRVpa3uamf9qfsFKslu9s11tUGZgtOvvKGXe2UWKu2gmAPyCi5dd7b5CRNbVMHZ1NX88glGelgyoqsmpMeGFzJuovCrmtMTtFUQ2xtqbnbinUwD4PZ8+LELWWspjYulUb1opjCWLASzjSmuFoGValxtWaJ4dnapjm8kFmHRDI11RarXE5vVyWsg392AcRyhrXqdqPG6hBGv0WjT1XhpIfhmJ4x7K3ZRNVAJJmaCswKnDxuVqV2lIZ97pRIOrG38pVkaSooxxAn859PhPyy3LDDxQnD8lUL6uV6IsnTlFrPrcqurG7kKzxWk9eSn2h/shQDS9sV7TPz1n2efkADO0E916+huLqLCzLmFxfHf+sfbq+fOnWOMDM/QLqgqYbQ0eL6F+aRPHKtOIr9oQtnarsbulGd45iVG6SIpoLOsIJh5bu7XZQpimwdVBROaAkVWV2xMkcdKLpfMk8fDioUsOKUddiRTE0FzU6VFVsNVWcbhdqdkWOhvD8/fGoO1qysOGtLP4tqrFNe6HYpHm0IJ5lNGJnFACvF4Erm6aM6X4yJZGpqs1avY35oZfvwY7fqU+xKrAF1mhvMe4ecoqlt6uBs6mrIiIWqDKMiq2bRiYNn1N2qa0hO0VRDFpDsQ8nqQjEWq+dlpVvKWE2pwVJpjSDma5VrudhEMZbqszD6npcaV6sl1n/uzn7WxGgzZ/QgNlpHSzI11bZ2WdrMPpSsdooOW90rK91SxmpKHbQAxqFO1Y3apzf6vWXIi7WTujzioWFvrSYavRGSqanA6I2zdkkraVdaRmnU57XJWFXnlBcrT0gpTQXVGGLdTswuyo07nJ+wYYBVT7yX64kkT1NBPLsTK6sbRRPhY9bTtWeuUFFNs5OR1W5a62C8Pk8/oIGdoJ7r11Bx0SzcdrfPXLPXi8Nn/Ib/FmR6Zv+yjH/SS5to/XW9k0gPNNVg9t4Lh9Zj1UM4DlMyfBk3Rin/fuhC5oZuVOcsQqG1OZsU0VQQR9U+NRZpzu8r3RZaas3RMsXIxu3mmkFIKsoqzqoxMocdiAWkTV/AHdUaQn/MZrbXuWbkNTmSqakgFi/DUHXnpVmrepfkGD897Q8mZ9uDLcp75Txu6GdRTWy3HUPJaXa7UPYnirUWzWa1GJnJeXZYYoHQ/xusq6FY3xon1wGfmWSPuhqOy2F/bPPtNDl1zc2nT0psnfceOUdT28QxV1FodzXJiIViPZoTPxtlikElpx6xQvrkFE15SzPJ1oM06+tdZyV+9mVcx1yj1nDKQMXqYqGyhU1l8qbk0+alEgcQp85e/Gst2mK9tsuxiZCVtJ2XGlarxe3Or+cvFYQSx949WAAhNxRshHrQaOhx3otW37aEZRE75SVjGPQ2OXPfwojFt8bNVyqfmlGKVbYjHA77Y+XF8k7lCSmkqSCvahFnQ6y5Rbn1Y6PDjT62yxs9cV6uJ5I8Ta3WwaV/cElqCVe22Y1wVmhiwxouqgkfl46HevM5stpNcwfj9Xn6AQ3sBPVcv4biZWHI/iJau2ByGaR3rvVCap1a3S9OJQ1qqiHvfOR62RqChMifLJIHVORCsDt04cR4R9rQjeocEeoeBVyKaCqIDfZObfUqnvNCt2vV4IfRMPvaiUEMfSPqi25mKbbRXBL+oOY4IXtDnZqzkmeY+7+0b45kaiqI1ZdxCNWulbR6kq55o0zeGbOS2MZosOF4OrJqIsf9rKoZxrDf7VTVnVVsxZ9oDaafWYpt3G9dDbXaX8hMpS0MutquKZkDMwjhzHRA+fyZddfjH5GTNLVNbDaOYNzVJGMtZPS/nESrZsccu6iaSzRXSJ+coinPqHmxzmd7wW8KVGtog1uZ07qNmOUbgWjVvcgWf7tg6EU1tjUrabwoNazWmACZ2vUfv1sVxF7YFbj/q0IimZqKjNMX6yBnWQDtor4Xo0bzQOqBvN+JVltpWBZZuexYv7fivYXRqn5hXji+UvO02N6gz+02t0zBoPKV5GkqCKcmgVmjl2SW5UYdLk8Ylrd6sni5nkjyNJVqVlA0kHZjx6VdVdM6ZePwa/l4fZ5+QAM7QT0fWEP2nTr595nV8l9L1CJynX2HvdfsMvj59rd5kT5O/E6vHlhaMBs4lTSrqYbGhR5vDxuG4HaWtcBSIhbYFzrrjjTqhnVOdfdskCKaCuL++uDUYXC2d/snj0My8h3RiLrjCAf9UasdO1NsGHhyXA6nR/deLMlq8sf8AMq+mROq46gCEWKQj3pDeEedyQJQRmDQhBV1ayYH/TRXznvdDqzeROHgBOtqLAZj1XrQDLu673ZqBrucwI3z3idnamqbMIB1BJtWfsgoVtRgYTdW3OK4FdInp2hK6b/JLnU5RtwbC35ToMRwaGK46vKmXlgqoUeJnW9ZxthCVhKCulS/2vCxstZ57t2DBZDodmPU6Mb7XrAlLGLtfxpT59SFsTVuL07NcKK71+B7lSs5oqmgt5LTPKPc4OquThgN0F4wL9cTSZ6mSlWwkmj1ApI2MZzNupruKY3hi03jdVmt8UKxE9TDGjoPgR36YIjaN1/sx5rHGVhXfRfFJ7wV/7mb5kXxwTbGwzd8xzljbUmtmsJfEZZI/SX/QFMtDAb7VMtlwi1uhJ2gHtbQeQjs0AdDxE7QGVjzOAPrqu+a+Fzy7ewU18QHG9W7Pr8/YW2xE4SrbjVTLQwG+1TLdcItboSdoB7W0HkI7NAHQ8RO0BlY8zgD66rv9PjEb2aLP7cRxPq5l2w1ZU55HEu9msLfELYKT77VSAOamgCDfarlQuEWN8JOUA9r6DwEduiDIWIn6AyseZyBddV3enzid/fljxVo3h9yenzwouLvZsjCKv7YxoGkdk3hT1h/ZuzcPeepFgaDfarlUuEWN8JOUA9r6DwEdogQPQwTijOwrvqITx/xmRmzD9NUC4PBPpUMdqrx7sNOUA9r6DwEdogQPQwTijOwrvqITx/xmRmzD9NUC4PBPpUMdqrx7sNOUI9fQwAAAAAA4K/Qr/RoYCeoRxcRAAAAAAD4I/QrPRrYCephDZ2HwA4RoodhQnEG1lUf8ekjPjNj9mGaamEw2KeSwU413n3YCephDZ2HwA4RoodhQnEG1lUf8ekjPjNj9mGaamEw2KeSwU413n3YCephDZ2HwA4RoodhQnEG1lUf8ekjPjNj9mGaamEw2KeSwU413n3YCephDZ2HwA4RoodhQnEG1lUf8ekjPjNj9mGaamEw2KeSwU413n3YCephDZ2HwA4RoodhQnEG1lUf8ekjPjNj9mGaamEw2KeSwU413n3YCephDZ2HwA4RoodhQnEG1lUf8ekjPjNj9mGaamEw2KeSwU413n3YCeq5Zg39fn9JK/9+9OOxTq38HRcE9q8jRA/DhOIMrKs+4tNHfGbG7MM01cJgsE8lg51qvPuwE9RzyRqacyNo183o55+c9fX9qx+PclK1WzXnaE+IcGNMKM7AuuojPn3EZ2bMPkxTLQwG+1Qy2KnGuw87QT3tNfT78+9r+f7ufH39+zG3EX6//w03Yox9gC2VZ2VcIT2QqSr/zev+913XPWj9/Ro8OaSpyPe2su7RsBN0d/1lOVwY7xe4NemzpoDj3Gld9e8AnyEd0dRHbXh0fob0RlOYD7MP04ELw7/j1u/Y7tW7/wXpIlNdBbPNrNAPaGAnqKexhsKOhbzmCn23K6+FZFujdzm4Yum5Wyr3V5mU+P5ZfC/lvo1GisqLql266N2g9fdriCRXU5E/1Z+YWEfGTtCt9ZflcGG8X+DupLuaAo5zm3W19cF0sVvEx8cm3Lxc+h5vytyX5sbsw3TkwtB3t/x+5zPv8QY31VUw28wK/YAGdoJ6zDVUr/xf/5K35mgReQl2ic7rniuZXDCbK99ykRmVS5fW87SxtcSw9fdriCRPU5E/uSq5clVtGflrTqp2q+awjRDdlx9FM4rDhfF+gfuTzmoKOM491tXgDvBBd4iPRMd6dN7i5nWP9YPPYPZhOnZh+Je19PFwq9e3Ywd7c8cO9v4zK/QDGtgJ6rHWkPm+6zPDyl8++QJ5fs1dMUldGysvS9jKymu+5rzqfuul/TVIlqaiflNiPKJdTqp2q+awjRDdlhtEO4bDhfF+gT9A+qop4Di3WFfuWvzcXbTnltedeUP7DO5LM2P2YTp4YRQ3vBvd/xZTXQWzzazQD2hgJ6jHWkP2tkFjM8FfE81vqtVZ48pdjXVDhkaXUsUlO269sr8GydJUNIhWVZH7KMV/f+JP23/9Mzr6++P/XpP3Vf11mVDtUo+W219P3n1rSGk1Sx3NYUuupm7PjaGa+JW5BNLc9wv8AdJXTQHHucO6Gt0BPumW152/7d8iYtyXZsbsw3T4wnBva/qmm6YTyTu43BzLV+zsDfzYXzyWCjU1gcMHe/OZFfoBDewE9RhrqPG1/bVsVX2N3VCLO+ff93LdLJnO8mcZqvfJqnJDfs3uGcP+GiRHU1G3pUUxJt+4i4P76wsakXzQvlItsZZJW/H1OO/Xk3e/HlJozP+5CF/Lwhi25Grq9vzQm8uyMbNr9vsF/gLpqqaA49xhXQ3uAB8lXdHUffjnwD3uXHeMD67C7MN0/MLwr2vLi7W7/ZVfT/Tw8thwf2XOPUiq9/149Ks8/x1Ss6YmcPxg7z2zQj+ggZ2gHmMNNb56vpbt1ZfMuBafXMhlk15V5Vnm9ZjTuuKJ49ZL79QgOZqKfDndagnSrxLFoPz9Ix2l1lBm5G3rbWctdGg9+TD9eWteVXGouQzPQnI1dXdhEDI0c1mWYVBr9vsF/gLpqqaA49xgXfkLcTF4MH2C9EJTn/W7xEUiE96E73Lfukt88AnMPkxnLAz/0vzP3QCL25/xLpdluQ/pq/OhpB1NTeCMwd55ZoV+QAM7QT3GGjIW9eK1bGfDvoFKsjWZXzTGaUblBX9SWmbceu69GiRHU5FWmEtPc6Na7xjFx0XRlN0hn3tSPXmhLfXYlQvJ1dTd6RCyEKbjagxxzX6/wF8gXdUUmvTrcpAtKZhusK70QmzeAT7qJtedD0e0/BPoPVa3dEZTc+FWs5h19gsshtIpCyPeBPMXbj2w/NJQyv3dBy3pz8z+7P6BpGpNXeST6+2Uwd54ZoV+QAM7QT3GGvKLdus30kb2wtqrGddil3B1pblW5Rl/Rn7JvjaGd2uQHE1FjdNXrs21yeLjoqjCKLHwfe+V2l9P3v0t9TSHLbmaujt7CGt4GkNcs98v8BdIVzWFFr9oVn9lbj9JwqSpj7EvxOIG+Sk3iE9B34Sth8oH3C8+l+BW48jINTUzFkNFoqCpQzUeCuUErOI98jf8nKn7NaNjb5xSq6au8dH1Ju1p6lC3nVmhH9DATlCPtYbcsq7e3+zc9hfVxoFx5WYJl7nWNvp67I/vaT14vwbrZjTqd1mRUW9Rhd0fn90ttb+evPtb6mkOW3I1dXvmwJLwmMfT3PcL/AHSV00Bx7nDujKvRJdp3dquddPr7ibR4b40N2YfppMWRuN9Vx8g+U+OOFpAJX9b+MgXP6lOUxM4abC3nVmhH9DATlCPtYbM1d56p2t9yX8pP6vcKuHz4sXTqtzzR83D49ad92tYSJamon7Hhd5Swk2i+LgoqrBr9Lm3qceuXEiupm7PGkMaHnOM6cJ4v8AfIH3VFHCcO6yr0R3gk2563fm71+fDw31pasw+TCctDPNNrpnd8Hv0q99Jg72nkwZ725kV+gEN7AT1mGuofr31OdbaffnSGFdevz4WOe3Kk8rsl89x6wfUoCRPU5EvavfccSNdKy8+Lsoq6miFO02Sd2g9af917L16wm8JWMOWXE3dXx2gPMeHIj2uwQnjfr/A/UlnNQUc5xbranQH+KAbxEfuVcXfQdDnxx1uXzeIDz6G2YfppIXhX9vq2179greof3REudvncTfPqa6C2WZW6Ac0sBPU01hD+gr3n/73xP2HdOXKS55yB8N/DSu8CbYuGGdcuTtbpP8d8vUq61SuVef/ba7Fdyw9aP39GiLJ1VSkN4yy9vUF2tW9DrX4uKhHH/uTdSg766h64tS4Im5mvtz/JvXEIr6MTxZlAsnV1B8QBpYMXtJJeGIAl+PWwni/wN1JdzUFHOce62p4B/gY6YemPiYPTrx73eP2Jf3QFObD7MN00sLwt0LrxqcvePG/Pul/WUgfIctp8tbsjoRfIzrw7im1aWoCJw32tjMr9AMa2Anqaa6h5DcaZT3LIs5fd8NX1pJf3u566bwhDyoXyw+SrCWSrZJu5f46taTle62/X8NKjmkqalS/1u3i2vy48FUUt5Hlz5FlHSp+oOmoeoSMPRSRAnLc1Z3XE38MSMq4OowyjuRq6m/oLEtnuDDeL3Bv0mlNAce5zboa3QE+RDqjqU9yN6/s7nWT8HBfmhqzD9NJC8N8tw6yJ0j+COkcOoBUqakJnDTY286s0A9oYCeo55Q15C6XfN/hOKdWfiguziFC9DBMKM7AuuojPn3EZ2bMPkxTLQwG+1Qy2KnGuw87QT1nrCHjB1COc2rlxzo8sM9DiB6GCcUZWFd9xKeP+MyM2YdpqoXBYJ9KBjvVePdhJ6jnhDXERpA6OrAPRIgehgnFGVhXfcSnj/jMjNmHaaqFwWCfSgY71Xj3YSeohzV0HgI7RIgehgnFGVhXfcSnj/jMjNmHaaqFwWCfSgY71Xj3YSeohzV0HgI7RIgehgnFGVhXfcSnj/jMjNmHaaqFwWCfSgY71Xj3YSeohzV0HgI7RIgehgnFGVhXfcSnj/jMjNmHaaqFwWCfSgY71Xj3YSeox68hAAAAAADwV+hXejSwE9TDGjoPgR0iRA/DhOIMrKs+4tNHfGbG7MM01cJgsE8lg51qvPuwE9TDGjoPgR0iRA/DhOIMrKs+4tNHfGbG7MM01cJgsE8lg51qvPuwE9TDGjoPgR0iRA/DhOIMrKs+4tNHfGbG7MM01cJgsE8lg51qvPuwE9TDGjoPgR0iRA/DhOIMrKs+4tNHfGbG7MM01cJgsE8lg51qvPuwE9TDGjoPgR0iRA/DhOIMrKs+4tNHfGbG7MM01cJgsE8lg51qvPuwE9TDGjoPgR0iRA/DhOIMrKs+4tNHfGbG7MM01cJgsE8lg51qvPuwE9RzzRr6/f6SVv796MdjnVr5Oy4I7F9HiB6GCcUZWFd9xKeP+MyM2YdpqoXBYJ9KBjvVePdhJ6jnkjU050bQLW9GP/+kV1/fv/rx0+4YIryBCcUZWFd9xKeP+MyM2YdpqoXBYJ9KBjvVePdhJ6invYZ+f/59LXssztfXvx9j9yAr4wrpgYyxV9Op3Jc2WTsYVeW/ed3/vuuOD4b2fg2eHNLUIerAtBruyHeCfJXbN4ZeLT8ktWkKj8CEruQeIeEwrpfh3WPT7WUqEgdNwUJ8+qaOz++3uxPd8V/LrsHVITa81k5HAqGpCTDYp1ouaG5xI+wE9TTWUNh1kG8hQp8fxTcat6mwlPj+WXwv5b6Nlw1XV3puv/LfpaaKK2S8yhSVF1W7dLkJ1R/a+zVEkqupQ/hmfaML7ZvRcAc7QTgTExqEu0R5vQzvHsMCM5IQaAoW4tM3bXzW2xA7QTPzb+u919oZSQw0NQEG+1TLtcwtboSdoB5zDenbQ/Kc+PUPkjXHF9ny/cSVTApuqLzSLGBU/pX+W4c2tpYYtv5+DZHkaeoQvuG0lborQ66rW6btGgeHCJ/GhHru0vz6/i4vt+HdY/vtZSoSAE3BQnz6poyP3kvkfcYl5r2DcHXIUrBea+d+qEy2MBjsUy2X8vS3uCF2gnqsNeSfEsV2gc/Mvq9s2lAotx42VF5pbl+M9zV8zXm/X2t9fw2SpalDGI2YnekaR+xSB4cIn8aEOu4yk0v15bvfsMCkZPyagoX49M0Yn+W24e8ks99AuDoq5oNmOlMtDAb7VDLYqca7DztBPdYasncL0lz3GNn0FKnqGldeaj+zemep4uTXW3+jBsnS1CF8R4ydoOIN77f3R0aKjhr9fuX0t0ltmsIjMKHCXSXuqiyvF/v6SXKHBSYl49cULMSnb+74mO8JE+HqqBSvtZOaamEw2KeSwU413n3YCeox1lDjtSHNdt9M/n3/fKebBtafoKu+wmyovOCqMA9t+X6Un/166+/UIDmaOkTdhs/JIqBZ+seb/F+KTEsUMStD+OLpb5PaNIVHYEL9NaTXSHG91Jews2YPC8xKhq8pWIhP39zxmf3+wdVRyt9qpzXVwmCwT7Vcy9ziRtgJ6jHW0PjbiE8uvv59p3sG5Vn1xsG48kL7kbVhV0I7Gs9+ufW3apAcTR3Ct/Hl/z53CLlMQD+6RVYRtPzjy6e/TWrTFB5h+gl1F0y8QorrxbjAFmv2sMCsZPiagoX49M0dn9nvH1wdi199cQz/wDfz80RNtTAY7FMtlzO3uBF2gnqMNTT+NqLJfEPAOM19D8orGlee8fnm1oNRecGfnJZ5sfU3a5AcTR1CO1NIt4JcieX3uVI/y3O/9dU0+/j66W+T2jT1WPr+FRwWunuaYEK7irtScb0M7x7DArOS4Wvqw256OROfvtvE5yNmv3/MPfvKL4Jo+bnvh7+MjEkcNHWRT94eGeyZPjzYy8f797AT1GOsofG3EbuE+9aT5hbfipxx5amqypVVecafm+9a7Gl9fw2So6lD1G38+v8mSOyi77AlDsIVWYeUfXz99LdJbZp6qjKo1dJ5FhmhpmbkJjud4eJ6Gd49Xrm9TEWGr6nPuuvlLF3R1GcRnzua/f4x9+zX9B/4Dn2V+5OuXhgfvT1Ke5q6BoO9im9SP6CBnaAeaw25RV09I9Jcs4S/FuIV0Hj7GFe+KmpMjF5t/PF3Wn+/hqNvRvaY0xhpL/If6nFc0UXR0ezj66e/TWrTFB5h5gn1F+jX17+V/zNqLud7uUTt6yfJHRaYlIxfU7AQn7654zN6XXo6rg6De6hMvCgWUy0MBvtUy4XMLW6EnaAeaw2Z7w3Zc8Mqod+DwteV1svHuPKgqDDVqtzzR83DG1t/v4aFZGnqEPag06btEhlXfI1p9vH1098mtWkKjzDzhOpdo8FdNcO7x7DApGT8moKF+PTNHZ8NT/ZH4+ow+KfKgS9zf9BUC4PBPtVyIXOLG2EnqMdcQ/7FIX1G6Jec+C5RP0WKnPa7x7hyr/OgaleeVGacJza0/n4NSvI0dQjfTDdKdd8W6U/1uPJrgfzjy6e/TWrTFB6BCc1U18vw7jEsMCcJgKZgIT59c8fH30LmvYNMf3XIAlh+2Fs/LX79myOPFU1NgME+1XIhz36LG2MnqKexhvQx4X+vwf9Kcf7Q0K8nWkL/W/Lr95fuq8ew8oUvZNbQqVyrTn9Bw3O/m+EMWn+/hkhyNXUIP+z0l0+06fRrY+y+/jfd9L8wFku4482Pr57+NqlNU3gEJjRjXC96ibXvHsMCM5IQaAoW4tM3ZXzk275yd5Hw6jDfXwqe/urIX9fjU4XHykwLg8E+1XIpz36LG2MnqKe5hn7jfxleyDtE/e1/+atza4ns/cI9eDobBsPKddfDrKFTeXzgVdLyvdbfr2ElxzR1CKNrS9PVa102L8XElF9NjW+qr5z+NqlNU3gEJjRjXi/ju9+m28tUJBCagoX49E0Zn7CnXJru+7+MWVPzcg+V7Kky3YZgTSKhqQkw2KdarmhucSPsBPWcsoY6ezXvO7XyQ3FxDhGih2FCcQbWVR/x6SM+M2P2YZpqYTDYp5LBTjXefdgJ6jljDR39gyOZUys/1uGBfR5C9DBMKM7AuuojPn3EZ2bMPkxTLQwG+1Qy2KnGuw87QT0nrCE2gtTRgX0gQvQwTCjOwLrqIz59xGdmzD5MUy0MBvtUMtipxrsPO0E9rKHzENghQvQwTCjOwLrqIz59xGdmzD5MUy0MBvtUMtipxrsPO0E9rKHzENghQvQwTCjOwLrqIz59xGdmzD5MUy0MBvtUMtipxrsPO0E9rKHzENghQvQwTCjOwLrqIz59xGdmzD5MUy0MBvtUMtipxrsPO0E9fg0BAAAAAIC/Qr/So4GdoB7W0HkI7BAhehgmFGdgXfURnz7iMzNmH6apFgaDfSoZ7FTj3YedoB7W0HkI7BAhehgmFGdgXfURnz7iMzNmH6apFgaDfSoZ7FTj3YedoB7W0HkI7BAhehgmFGdgXfURnz7iMzNmH6apFgaDfSoZ7FTj3YedoB7W0HkI7BAhehgmFGdgXfURnz7iMzNmH6apFgaDfSoZ7FTj3YedoB7W0HkI7BAhehgmFGdgXfURnz7iMzNmH6apFgaDfSoZ7FTj3YedoB7W0HkI7BAhehgmFGdgXfURnz7iMzNmH6apFgaDfSoZ7FTj3YedoJ5r1tDv95e08u9HPx7r1MrfcUFg/zpC9DBMKM7AuuojPn3EZ2bMPkxTLQwG+1Qy2KnGuw87QT2XrKE5N4LmuhntQ4gehgnFGVhXfcSnj/jMjNmHaaqFwWCfSgY71Xj3YSeop7WGfn9//n0tWyzO17/vn189EuUlvv7VJZSxVzM69/fn+188Ls03664rP6znv74L1h7Ttu7JIU2dzdoN83lf383I3cF1IcIlmFCc4XbrSh4h0qfb3GBvEp8ND9/PkN5oCvNh9mE6cGG03rd//kn2Lf6lmsE+1RJ0bnEj7AT12GvIX9DLJokIL3bZ9e1vBbGIfjDfil3R9NDwXN+8HP7++Ql7LnbdZeVF1S69p+ehkKhva1u7J9maOpvvbtpT7aMdtPu4LkS4BBOKM9xsXa3Ph5vcYqUnmvqg8WvDx0hHNIX5MPswHbkw9JmQ3+985j0eEgz2qZap4BY3wk5Qj7mG5Ir+Sv81r7rs6/vAr38LNF77XNnk7jA8t66pva1hVG71fC0xbD0558cl0o4stndPMjV1Nt/l2Kd6kHd1XYhwCSYUZ7jVunL316/v7+W+bz2VPuAO8ZGw9F8bPuhW6wcXY/ZhOnZh1F8E6i8LH8Rgn2qJO7e4EXaCeratIf9OF6/64qPnM6v7gLs9JEWH55YnLBp1m2Vz/sx46rB1/8kXMFt9oXuSp6mzZR3wH7pRuY3rQoRLMKE4w53WlXsEyM12/PS5zi2vuxs9iW4ZH1yE2Yfp4IVR3PBu9ibOYJ9KBjvVePdhJ6hn2xoqrnL7FdjMrTJH59o3lBdazO3veTg33+B5pXuSp6mzJT11Xal3pfI/4LD8BYeis9mfPlr+bVfzzyVtaQqPwITiDPdZV+4Gu95q68fGR9zyurMflh9xy/jgIsw+TIcvjPT1u/Uq3v0rpSe+h0uFmjrIVIO9Mx9A/YAGdoJ6Nq2h4iq3dkiEle3OTF8Fh+fab4/maVXlhrzrw9YzVvYL3bvwZhTat3sXe+3/spH1p418mNbjclfuhvUo0qim8AhMKM5wl3Xl7qR6c9zy/LnKHa+7/Nn7WXeMD67C7MN0/MJYX8HNx8PgTfzU93CpWVNHmWqwN7bEkVvcCDtBPc019LtcnnKBhus3eaHzF/iWjZP6/jA+V28f+U3BOs28+eT8aet549ZTZrbP3NC9K29G2im3+25G5PfnN8stYufO74fyHNeFCJdgQnGGe6yr/D654QF0mbtcd53Xho+6S3zwCcw+TGcsDL/B4f9kvvnlIcvMss59D5d2NHWcqQZ7WzLYqca7DztBPa015K/ZaNm4jZescYkv6mx3m8jLbTg3NB02i/WlUmSnGZUXtKKkzIbWE3b2xu4JydLU2UJP/X15w921GJr/mP25z2tIq5p6LP1uFFwd4YtNMKHvm2tJHOIW66p45LiP7ASlwsNRZa8NHyWd0dRcuNUsZp39AouhdMrCiDfB8tngDiy/IZX6Wb4/aMlz38Olak0daKrB9nzy4nITwC1ugJ2gng1rSK/f9Vr3l/B448Taq9l2bvnbpX67JbvXDDeCrF2RrT33GtmbureQg5o629pTa9RK5lE6qlz3k6H9hg0t97OcxtnnkAY19VR+QlbGcnoSGaGm0DLZkjiEhElTH1M9cVyGeau93g3iU6heGz7qfvG5BLcaR0auqZmxGCoSBU0dyke6im85Aat4jzzzPVxq1dShphps00cvLt+kfkADO0E9W9dQdrm7D9ULXpHb2EfZdG7FHU/qam7SKH/8zdZHjazK7nmSp6mzpT01h64v5YWyx8kfcOvMxZGkJU3hEZhQnOHj68rfVuWVdeX/NcDlXPQH9ttuet25B+OmR+jJbhofXILZh+mkhdH45qDfM/Ifk3G0gDrpPVyq09ShphrsPfnw6Qc0sBPUs3UN+Vc6vVTNa7946WvcHzadW3HHk8Otyj1/1Dz8Uuv9VhJl95RkaupseU+r8fuM9A/394b2O5qNA0k7msIjMKE4w8fXld5UGy7aOG+TPmjqVvyj5OPR4b40N2YfppMWRuP1uvfWXTv8PZzBPtUSOm5xI+wE9VhrSK7h4rc39TqNF6q/ytMXPJ+zXsnt+8D43ELrBLt8rMx++Xyl9V4zq7rGQLI1dbaypzqm0Ck3e1kP/c8ItYbmyo/GfQhpR1N4BCYUZ7jjuqpvq59zg/jIQ2fw2vBBN4gPPobZh+mkhdH65mB/V6h/TkYd/B7OYJ9KBjvVePdhJ6jHWkP+Ehb6o/D6KbtM9R1Pi2iJtUDr7uAMznWHw0/hh56k95NO5Vp1OHu1/vj+oHWp/scdEe5g+IWA8JI77F4kBzR1NiMifpjaMf0gYzD/xPVyuvtV3YUeNsN7OGlIU3gEJhRnuOO68k8C89Z/uRvEZ8trw8dIPzSF+TD7MJ20MNrfUPTbh7xsp/+9GX2InPweLrVp6lBTDfaelthxixthJ6insYbcL2+6i3PhLtjyhTf5/U5fIingbg6dd+TeuctOzNr0crRoulO5vylZ0vLd1uP9q6K3qVH3VnJYU2czb8b+537ifTcZsnTZDTKeUIzJmO2TSGuawiMwoTjDHdcVO0GlDa8NHyLd0RTmw+zDdNLCMN/Hg87L9rnv4VKlpg411WDvyYdQP6CBnaCeU9ZQZ6/mfadWfiguziFC9DBMKM7AuuojPn3EZ2bMPkxTLQwG+1Qy2KnGuw87QT1nrKFT/630Tv8QO3B4YJ+HED0ME4ozsK76iE8f8ZkZsw/TVAuDwT6VDHaq8e7DTlDPCWuIjSB1dGAfiBA9DBOKM7Cu+ohPH/GZGbMP01QLg8E+lQx2qvHuw05QD2voPAR2iBA9DBOKM7Cu+ohPH/GZGbMP01QLg8E+lQx2qvHuw05QD2voPAR2iBA9DBOKM7Cu+ohPH/GZGbMP01QLg8E+lQx2qvHuw05QD2voPAR2iBA9DBOKM7Cu+ohPH/GZGbMP01QLg8E+lQx2qvHuw05Qj19DAAAAAADgr9Cv9GhgJ6hHFxEAAAAAAPgj9Cs9GtgJAgAAAAAAmAU7QQAAAAAAALNgJwgAAAAAAGAW7AQBAAAAAADMgp0gAAAAAACAWbATBAAAAAAAMAt2ggAAAAAAAGbBThAAAAAAAMAs2AkCAAAAAACYBTtBAAAAAAAAs2AnCAAAAAAAYBbsBAEAAAAAAMyCnSAAAAAAAIBZsBMEAAAAAAAwC3aCAAAAAAAAZsFOEAAAAAAAwCzYCQIAAAAAAJgFO0EAAAAAAACzYCcIAAAAAABgFuwEAQAAAAAAzIKdIAAAAAAAgFmwEwQAAAAAADALdoIAAAAAAABmwU4QAAAAAADALNgJAgAAAAAAmAU7QQAAAAAAALNgJwgAAAAAAGAW7AQBAAAAAADMgp2gMQkRAAAAAAC4P/0mj5b//e//AdwGH1GoELqcAAAAAElFTkSuQmCC;" vertex="1" parent="1">
          <mxGeometry x="-1539" y="530" width="1539" height="178" as="geometry" />
        </mxCell>
        <mxCell id="5MVP5skuAe8IDS_eW-yI-57" value="" style="html=1;shadow=0;dashed=0;align=center;verticalAlign=middle;shape=mxgraph.arrows2.arrow;dy=0.6;dx=40;notch=0;direction=south;rotation=-75;strokeWidth=3;" vertex="1" parent="1">
          <mxGeometry x="-20" y="600" width="70" height="100" as="geometry" />
        </mxCell>
        <mxCell id="5MVP5skuAe8IDS_eW-yI-59" value="Wide Table" style="rounded=0;whiteSpace=wrap;html=1;fontFamily=Montserrat;fontSource=https%3A%2F%2Ffonts.googleapis.com%2Fcss%3Ffamily%3DMontserrat;fontSize=29;strokeColor=none;fontStyle=1" vertex="1" parent="1">
          <mxGeometry x="-829.5" y="470" width="200" height="60" as="geometry" />
        </mxCell>
        <mxCell id="5MVP5skuAe8IDS_eW-yI-60" value="Long Table" style="rounded=0;whiteSpace=wrap;html=1;fontFamily=Montserrat;fontSource=https://fonts.googleapis.com/css?family=Montserrat;fontSize=29;strokeColor=none;fontStyle=1" vertex="1" parent="1">
          <mxGeometry x="379" y="470" width="200" height="60" as="geometry" />
        </mxCell>
      </root>
    </mxGraphModel>
  </diagram>
</mxfile>
